<?xml version="1.0" encoding="iso-8859-1"?>
<!-- Generator: Adobe Illustrator 21.0.2, SVG Export Plug-In . SVG Version: 6.00 Build 0)  -->
<svg version="1.1" xmlns="http://www.w3.org/2000/svg" xmlns:xlink="http://www.w3.org/1999/xlink" x="0px" y="0px"
	 viewBox="0 0 64 64" style="enable-background:new 0 0 64 64;" xml:space="preserve">
<g id="bell">
</g>
<g id="diploma">
</g>
<g id="school">
</g>
<g id="painting">
</g>
<g id="graduation_hat">
</g>
<g id="school_bus">
</g>
<g id="abacus">
</g>
<g id="microscope">
</g>
<g id="science_symbol">
</g>
<g id="calculator">
</g>
<g id="chemistry">
</g>
<g id="brain">
</g>
<g id="idea_book">
</g>
<g id="reward">
</g>
<g id="exam">
</g>
<g id="stationary">
</g>
<g id="computer">
</g>
<g id="backpack">
</g>
<g id="task">
</g>
<g id="globe">
</g>
<g id="certificate">
</g>
<g id="alarm">
</g>
<g id="books">
	<g>
		<path d="M52.0706,7.0674H24.3712c-0.5523,0-1.0001,0.4478-1.0001,1.0001v11.5033c0,0.5523,0.4478,1.0001,1.0001,1.0001h27.6994
			c0.5528,0,1.0001-0.4478,1.0001-1.0001V8.0675C53.0707,7.5152,52.6234,7.0674,52.0706,7.0674z M51.0706,18.5707H25.3713V9.0675
			h25.6993V18.5707z"/>
		<path d="M32.952,30.9379h-6.2197c-0.5523,0-1.0001,0.4478-1.0001,1.0001c0,0.5523,0.4478,1.0001,1.0001,1.0001h6.2197
			c0.5528,0,1.0001-0.4478,1.0001-1.0001C33.9521,31.3857,33.5048,30.9379,32.952,30.9379z"/>
		<path d="M32.952,37.0218h-6.2197c-0.5523,0-1.0001,0.4478-1.0001,1.0001s0.4478,1.0001,1.0001,1.0001h6.2197
			c0.5528,0,1.0001-0.4478,1.0001-1.0001S33.5048,37.0218,32.952,37.0218z"/>
		<path d="M59.6406,51.3184c0-0.0054-0.003-0.0099-0.0031-0.0153l0.0001-0.9804l-0.001-4.4881V1.0083
			c0-0.5523-0.4473-1.0001-1.0001-1.0001H17.7623c-0.0034,0-0.0062,0.0019-0.0096,0.002c-1.6052-0.1082-3.5454,0.6521-4.9712,1.9586
			c-1.5304,1.402-2.3723,3.3108-2.3708,5.3735v1.3671c-1.5851,0.2154-3.0335,0.8624-4.0989,1.9246
			c-1.2789,1.276-1.9538,3.0198-1.9523,5.0424v42.3651c0,0.002,0.0012,0.0037,0.0012,0.0057
			c-0.0001,0.0089-0.0012,0.0178-0.0012,0.0266C4.3594,61.0188,6.9876,64,12.0109,64h38.3555c0.5518,0,1.0001-0.4473,1.0001-0.9991
			l0.001-3.0388l-0.0007-1.9635h7.2698c0.5518,0,1.0001-0.4473,1.0001-0.9991l0.0009-5.6658
			C59.6376,51.3282,59.6406,51.3238,59.6406,51.3184z M20.3949,52.3184h7.7989v5.4868l-3.2952-1.5089
			c-0.2559-0.1172-0.5489-0.1211-0.8072-0.0112l-3.6966,1.568V52.3184z M29.1939,50.3183h-9.7991
			c-0.5523,0-1.0001,0.4478-1.0001,1.0001v4.68h-0.0034c-1.9103,0-3.491-0.5303-4.5721-1.5328
			c-0.8932-0.8288-1.3863-1.9334-1.4083-3.1163v-0.164c0.0434-2.1117,1.7168-4.3507,5.3515-4.3507h39.8742l0.001,3.4837H29.1939z
			 M18.7624,2.0084h38.8741v42.8261H18.7624V2.0084z M12.4108,7.3413c-0.0015-1.9167,0.9351-3.1775,1.7218-3.8978
			c0.8519-0.7808,1.8174-1.2116,2.6296-1.3717v42.8157c-1.8473,0.1836-3.3013,0.8726-4.3514,1.8413V7.3413z M7.7244,12.0507
			c0.6983-0.6968,1.6359-1.156,2.6862-1.3362v40.3866c-0.0016,0.0562-0.0083,0.1123-0.0083,0.1684
			c0,0.0532,0.0068,0.1052,0.0081,0.1582c-1.736,0.2024-3.077,0.8776-4.0509,1.8154V15.6755
			C6.3581,14.1959,6.8303,12.9423,7.7244,12.0507z M49.3673,59.9665l-0.001,2.0334H12.0109c-3.7102,0-5.6513-1.9753-5.6513-3.9261
			c0-2.1756,1.3913-4.3443,4.4272-4.6535c0.3421,0.9396,0.9031,1.7985,1.6719,2.5117c1.4576,1.3517,3.5091,2.0666,5.9326,2.0666
			h0.0034v1.3649c0,0.3355,0.1685,0.6485,0.4478,0.834c0.1665,0.1099,0.3589,0.166,0.5523,0.166
			c0.1323,0,0.2652-0.0264,0.3907-0.0796l4.681-1.9855l4.3109,1.9743c0.3096,0.1411,0.6709,0.1177,0.9566-0.0679
			c0.2866-0.1836,0.46-0.501,0.46-0.8414v-1.3649h19.1727L49.3673,59.9665z M30.194,55.9984v-3.68h27.4432l-0.0006,3.68H30.194z"/>
	</g>
</g>
<g id="search_book">
</g>
<g id="stack_of_book">
</g>
</svg>
