<?xml version="1.0" encoding="iso-8859-1"?>
<!-- Generator: Adobe Illustrator 21.0.2, SVG Export Plug-In . SVG Version: 6.00 Build 0)  -->
<svg version="1.1" xmlns="http://www.w3.org/2000/svg" xmlns:xlink="http://www.w3.org/1999/xlink" x="0px" y="0px"
	 viewBox="0 0 64 64" style="enable-background:new 0 0 64 64;" xml:space="preserve">
<g id="bell">
</g>
<g id="diploma">
</g>
<g id="school">
</g>
<g id="painting">
</g>
<g id="graduation_hat">
</g>
<g id="school_bus">
</g>
<g id="abacus">
</g>
<g id="microscope">
</g>
<g id="science_symbol">
</g>
<g id="calculator">
</g>
<g id="chemistry">
</g>
<g id="brain">
</g>
<g id="idea_book">
</g>
<g id="reward">
</g>
<g id="exam">
</g>
<g id="stationary">
</g>
<g id="computer">
</g>
<g id="backpack">
</g>
<g id="task">
	<g>
		<path d="M62.5869,15.6494l-4.0179-1.609l1.0575-2.9203c0.3243-0.8979,0.183-1.8406-0.2922-2.5292l1.1745-3.2462
			c0.1875-0.519-0.0806-1.0923-0.5996-1.2803l-4.2759-1.5503c-0.5176-0.1875-1.0923,0.0801-1.2808,0.5991l-1.0567,2.9144
			c-0.4121-0.0361-0.834,0.0304-1.2304,0.2155c-0.6597,0.3081-1.1865,0.897-1.4458,1.6143l-1.7886,4.939V2.5576
			C48.8311,1.1475,47.6836,0,46.2734,0H3.3389C1.9307,0,0.7847,1.1475,0.7847,2.5576v58.8887C0.7847,62.8545,1.9307,64,3.3389,64
			h42.9346c1.4102,0,2.5576-1.1455,2.5576-2.5537V40.9308l9.0566-25.0092l3.0543,1.2233l-2.4268,6.6147
			c-0.1899,0.5181,0.0762,1.0928,0.5947,1.2832c0.1133,0.0415,0.23,0.0615,0.3442,0.0615c0.4072,0,0.79-0.251,0.939-0.6563
			l2.7612-7.5264C63.3403,16.4141,63.0894,15.8506,62.5869,15.6494z M55.8916,4.7349l2.3965,0.8691l-0.6843,1.8907L56.537,7.109
			l-1.331-0.4825L55.8916,4.7349z M52.5005,8.5376c0.0791-0.2188,0.2329-0.3989,0.4121-0.4829
			c0.0723-0.0337,0.1782-0.0645,0.2798-0.0283c0.001,0.0005,0.002,0.0005,0.0029,0.001l2.0341,0.7354l2.3157,0.839
			c0.2094,0.0818,0.3395,0.4537,0.2005,0.8383L44.5313,46.9307l-4.2017,3.0259l-1.0513-4.9067l9.4732-26.1597
			c0.0005-0.0013,0.0009-0.0026,0.0014-0.0039L52.5005,8.5376z M46.8311,61.4463c0,0.3003-0.2554,0.5537-0.5576,0.5537H3.3389
			c-0.3003,0-0.5542-0.2534-0.5542-0.5537V2.5576C2.7847,2.2554,3.0386,2,3.3389,2h42.9346c0.3076,0,0.5576,0.25,0.5576,0.5576
			v15.7615l-9.5313,26.3195c-0.0635,0.1763-0.0767,0.3667-0.0376,0.5498l1.4321,6.6831c0.0708,0.3301,0.3037,0.6021,0.6187,0.7236
			c0.1162,0.0449,0.2383,0.0669,0.3594,0.0669c0.2065,0,0.4116-0.064,0.5845-0.1885l5.6938-4.1006
			c0.1631-0.1177,0.2871-0.2817,0.356-0.4712l0.5244-1.4481V61.4463z"/>
		<path d="M9.4468,9.4868h30.5186c0.5522,0,1-0.4478,1-1s-0.4478-1-1-1H9.4468c-0.5522,0-1,0.4478-1,1S8.8945,9.4868,9.4468,9.4868z
			"/>
		<path d="M15.3403,13.52H9.5859c-0.5522,0-1,0.4478-1,1v5.7549c0,0.5522,0.4478,1,1,1h5.7544c0.5522,0,1-0.4478,1-1V14.52
			C16.3403,13.9678,15.8926,13.52,15.3403,13.52z M14.3403,19.2749h-3.7544V15.52h3.7544V19.2749z"/>
		<path d="M15.3403,25.4688H9.5859c-0.5522,0-1,0.4478-1,1v5.7544c0,0.5522,0.4478,1,1,1h5.7544c0.5522,0,1-0.4478,1-1v-5.7544
			C16.3403,25.9165,15.8926,25.4688,15.3403,25.4688z M14.3403,31.2231h-3.7544v-3.7544h3.7544V31.2231z"/>
		<path d="M39.1226,13.8774H21.8022c-0.5522,0-1,0.4478-1,1s0.4478,1,1,1h17.3203c0.5522,0,1-0.4478,1-1
			S39.6748,13.8774,39.1226,13.8774z"/>
		<path d="M15.3403,37.417H9.5859c-0.5522,0-1,0.4478-1,1v5.7549c0,0.5522,0.4478,1,1,1h5.7544c0.5522,0,1-0.4478,1-1V38.417
			C16.3403,37.8647,15.8926,37.417,15.3403,37.417z M14.3403,43.1719h-3.7544V39.417h3.7544V43.1719z"/>
		<path d="M15.3403,49.3657H9.5859c-0.5522,0-1,0.4478-1,1v5.7544c0,0.5522,0.4478,1,1,1h5.7544c0.5522,0,1-0.4478,1-1v-5.7544
			C16.3403,49.8135,15.8926,49.3657,15.3403,49.3657z M14.3403,55.1201h-3.7544v-3.7544h3.7544V55.1201z"/>
		<path d="M39.1226,19.2749H21.8022c-0.5522,0-1,0.4478-1,1s0.4478,1,1,1h17.3203c0.5522,0,1-0.4478,1-1
			S39.6748,19.2749,39.1226,19.2749z"/>
		<path d="M39.1226,25.8257H21.8022c-0.5522,0-1,0.4478-1,1s0.4478,1,1,1h17.3203c0.5522,0,1-0.4478,1-1
			S39.6748,25.8257,39.1226,25.8257z"/>
		<path d="M32.2285,31.2231H21.8022c-0.5522,0-1,0.4478-1,1s0.4478,1,1,1h10.4263c0.5522,0,1-0.4478,1-1
			S32.7808,31.2231,32.2285,31.2231z"/>
		<path d="M32.2285,37.7744H21.8022c-0.5522,0-1,0.4478-1,1s0.4478,1,1,1h10.4263c0.5522,0,1-0.4478,1-1
			S32.7808,37.7744,32.2285,37.7744z"/>
		<path d="M32.2285,43.1719H21.8022c-0.5522,0-1,0.4478-1,1s0.4478,1,1,1h10.4263c0.5522,0,1-0.4478,1-1
			S32.7808,43.1719,32.2285,43.1719z"/>
		<path d="M32.2285,49.7227H21.8022c-0.5522,0-1,0.4478-1,1s0.4478,1,1,1h10.4263c0.5522,0,1-0.4478,1-1
			S32.7808,49.7227,32.2285,49.7227z"/>
		<path d="M32.2285,55.1201H21.8022c-0.5522,0-1,0.4478-1,1s0.4478,1,1,1h10.4263c0.5522,0,1-0.4478,1-1
			S32.7808,55.1201,32.2285,55.1201z"/>
	</g>
</g>
<g id="globe">
</g>
<g id="certificate">
</g>
<g id="alarm">
</g>
<g id="books">
</g>
<g id="search_book">
</g>
<g id="stack_of_book">
</g>
</svg>
