<?xml version="1.0" encoding="utf-8"?>
<!-- Generator: Adobe Illustrator 24.3.0, SVG Export Plug-In . SVG Version: 6.00 Build 0)  -->
<svg version="1.1" id="Layer_1" xmlns="http://www.w3.org/2000/svg" xmlns:xlink="http://www.w3.org/1999/xlink" x="0px" y="0px"
	 viewBox="0 0 111.4 31.4" style="enable-background:new 0 0 111.4 31.4;" xml:space="preserve">
<style type="text/css">
	.st0{fill:#19B292;}
	.st1{fill:#FFC000;}
	.st2{fill:#FF6015;}
</style>
<rect x="3.8" y="17.6" class="st0" width="11.1" height="11.1"/>
<rect x="17" y="17.1" transform="matrix(0.9923 0.1236 -0.1236 0.9923 2.9645 -2.6056)" class="st1" width="11.1" height="11.1"/>
<rect x="11.4" y="3.9" transform="matrix(0.9876 -0.1568 0.1568 0.9876 -1.2687 2.7761)" class="st2" width="11.1" height="11.1"/>
<g>
	<path class="st2" d="M41.5,22.1v1.8h-8.2V7.8h8v1.6h-6.1v5.5h5.5v1.6h-5.5v5.6H41.5z"/>
	<path class="st2" d="M52.1,21.3c-0.6,1-1.2,1.7-2,2.2c-0.8,0.5-1.5,0.7-2.2,0.7c-0.9,0-1.7-0.4-2.5-1.3c-0.7-0.8-1.1-2.1-1.1-3.8
		c0-1.3,0.2-2.5,0.7-3.6c0.5-1.1,1.1-1.9,1.9-2.5c0.8-0.6,1.8-0.9,3-0.9c0.3,0,0.9,0,1.6,0.1c0.1,0,0.3,0,0.5,0.1V7.1h1.8v16.8h-1.8
		V21.3z M52.1,19v-5c-0.6-0.2-1.3-0.3-1.8-0.3c-1.1,0-2.1,0.5-2.8,1.4c-0.7,0.9-1.1,2.2-1.1,3.8c0,1.1,0.2,2,0.6,2.6
		c0.4,0.6,0.9,0.9,1.4,0.9c0.6,0,1.2-0.3,1.9-0.9C51,20.9,51.6,20,52.1,19z"/>
	<path class="st2" d="M65.8,12.3v11.6H64v-2.5c-0.6,1-1.2,1.7-2,2.1c-0.7,0.5-1.4,0.7-2.2,0.7c-0.6,0-1.2-0.2-1.8-0.5
		c-0.5-0.4-0.9-0.8-1.1-1.4c-0.2-0.6-0.3-1.7-0.3-3.5v-6.5h1.8V19c0,1.1,0.1,1.9,0.2,2.2s0.3,0.7,0.6,0.9s0.6,0.3,0.9,0.3
		c0.6,0,1.3-0.3,2.1-1c0.7-0.6,1.3-1.4,1.8-2.4v-6.8H65.8z"/>
	<path class="st0" d="M68.9,23.9V7.8h2v7.9c0,0,5.5-4.7,5.7-7.9h2.1c-0.4,4.2-5.5,7.7-5.5,7.7l6.2,8.5h-2.5l-6-8.2v8.2H68.9z"/>
	<path class="st0" d="M82,21.9c-1-1.3-1-7.6-1-7.6v-2h1.9c0,0-0.6,7.3,1.1,9.1c0.5,0.5,1.9,0.9,1.9,0.9v1.6
		C85.8,23.9,82.9,23.8,82,21.9z M80.7,8.1c0-0.4,0.1-0.8,0.4-1c0.3-0.2,0.5-0.3,0.8-0.3c0.3,0,0.5,0.1,0.8,0.3
		c0.3,0.2,0.4,0.5,0.4,1c0,0.4-0.1,0.8-0.4,1c-0.3,0.2-0.5,0.3-0.8,0.3c-0.2,0-0.5-0.1-0.8-0.3C80.8,8.9,80.7,8.5,80.7,8.1z"/>
	<path class="st0" d="M95.2,21.3c-0.6,1-1.2,1.7-2,2.2c-0.8,0.5-1.5,0.7-2.2,0.7c-0.9,0-1.7-0.4-2.5-1.3c-0.7-0.8-1.1-2.1-1.1-3.8
		c0-1.3,0.2-2.5,0.7-3.6c0.5-1.1,1.1-1.9,1.9-2.5c0.8-0.6,1.8-0.9,3-0.9c0.3,0,0.9,0,1.6,0.1c0.1,0,0.3,0,0.5,0.1V7.1h1.8v16.8h-1.8
		V21.3z M95.2,19v-5c-0.6-0.2-1.3-0.3-1.8-0.3c-1.1,0-2.1,0.5-2.8,1.4c-0.7,0.9-1.1,2.2-1.1,3.8c0,1.1,0.2,2,0.6,2.6
		c0.4,0.6,0.9,0.9,1.4,0.9c0.6,0,1.2-0.3,1.9-0.9C94.1,20.9,94.7,20,95.2,19z"/>
	<path class="st0" d="M100.1,23.3v-2.1c0.7,0.5,1.5,0.9,2.3,1.1s1.5,0.3,2.1,0.3c0.9,0,1.6-0.2,2-0.5c0.4-0.3,0.6-0.7,0.6-1.2
		c0-0.3-0.1-0.6-0.3-0.8c-0.2-0.2-0.7-0.5-1.4-0.8l-0.6-0.3l-1.3-0.5c-1.4-0.6-2.2-1.1-2.6-1.6c-0.4-0.5-0.5-1-0.5-1.7
		c0-1,0.3-1.7,1-2.4c0.7-0.6,1.8-0.9,3.4-0.9c1.2,0,2.3,0.2,3.3,0.5v1.8c-1.2-0.5-2.3-0.7-3.4-0.7c-0.8,0-1.4,0.1-1.8,0.4
		c-0.4,0.3-0.6,0.6-0.6,1.1c0,0.4,0.2,0.8,0.6,1c0.4,0.2,1,0.5,1.8,0.9l1.2,0.5c1.1,0.4,1.9,0.9,2.4,1.4c0.5,0.5,0.7,1.2,0.7,1.9
		c0,1-0.4,1.8-1.1,2.5c-0.7,0.6-1.9,1-3.5,1C103,24.2,101.6,23.9,100.1,23.3z"/>
</g>
</svg>
