<?xml version="1.0" encoding="iso-8859-1"?>
<!-- Generator: Adobe Illustrator 21.0.2, SVG Export Plug-In . SVG Version: 6.00 Build 0)  -->
<svg version="1.1" xmlns="http://www.w3.org/2000/svg" xmlns:xlink="http://www.w3.org/1999/xlink" x="0px" y="0px"
	 viewBox="0 0 64 64" style="enable-background:new 0 0 64 64;" xml:space="preserve">
<g id="bell">
</g>
<g id="diploma">
</g>
<g id="school">
</g>
<g id="painting">
</g>
<g id="graduation_hat">
</g>
<g id="school_bus">
</g>
<g id="abacus">
	<path d="M61.9854,51.5736V6.5605c0-1.4668-1.0107-2.6602-2.2539-2.6602h-4.5859c-1.2432,0-2.2539,1.1934-2.2539,2.6602v5.998
		H50.126V11.708c0-1.8848-1.5332-3.418-3.418-3.418s-3.418,1.5332-3.418,3.418v0.8506h-3.8623V11.708
		c0-1.8848-1.5332-3.418-3.418-3.418s-3.418,1.5332-3.418,3.418v0.8506H21.3281V11.708c0-1.8848-1.5332-3.418-3.418-3.418
		s-3.418,1.5332-3.418,3.418v0.8506h-3.3838v-5.998c0-1.4668-1.0107-2.6602-2.2539-2.6602H4.2686
		c-1.2432,0-2.2539,1.1934-2.2539,2.6602V51.574C0.8927,51.6489,0,52.5742,0,53.7129v4.2334c0,1.1875,0.9678,2.1533,2.1572,2.1533
		h8.8125c1.1875,0,2.1533-0.9658,2.1533-2.1533v-4.2334c0-1.14-0.8928-2.0662-2.0146-2.1393v-8.4379h3.9873v0.8506
		c0,1.8848,1.5332,3.418,3.418,3.418s3.418-1.5332,3.418-3.418v-0.8506h12.2168v0.8506c0,1.8848,1.5342,3.418,3.4189,3.418
		s3.418-1.5332,3.418-3.418v-0.8506h2.6904v0.8506c0,1.8848,1.5313,3.418,3.4141,3.418c1.8848,0,3.4189-1.5332,3.4189-3.418v-0.8506
		h2.3828v8.4379c-1.1218,0.0731-2.0146,0.9993-2.0146,2.1393v4.2334c0,1.1875,0.9658,2.1533,2.1533,2.1533h8.8164
		c1.1875,0,2.1533-0.9658,2.1533-2.1533v-4.2334C64,52.5729,63.1072,51.6467,61.9854,51.5736z M54.8916,6.5605
		c0-0.3975,0.1924-0.6377,0.2539-0.6602l4.5742-0.002c0.0732,0.0244,0.2656,0.2646,0.2656,0.6621v44.999h-5.0938V6.5605z
		 M45.29,11.708c0-0.7822,0.6357-1.418,1.418-1.418s1.418,0.6357,1.418,1.418v3.7012c0,0.7822-0.6357,1.418-1.418,1.418
		s-1.418-0.6357-1.418-1.418V11.708z M34.5918,11.708c0-0.7822,0.6357-1.418,1.418-1.418s1.418,0.6357,1.418,1.418v3.7012
		c0,0.7822-0.6357,1.418-1.418,1.418s-1.418-0.6357-1.418-1.418V11.708z M16.4922,11.708c0-0.7822,0.6357-1.418,1.418-1.418
		s1.418,0.6357,1.418,1.418v3.7012c0,0.7822-0.6357,1.418-1.418,1.418s-1.418-0.6357-1.418-1.418V11.708z M14.4922,14.5586v0.8506
		c0,1.8848,1.5332,3.418,3.418,3.418s3.418-1.5332,3.418-3.418v-0.8506h11.2637v0.8506c0,1.8848,1.5332,3.418,3.418,3.418
		s3.418-1.5332,3.418-3.418v-0.8506H43.29v0.8506c0,1.8848,1.5332,3.418,3.418,3.418s3.418-1.5332,3.418-3.418v-0.8506h2.7656
		v12.6533h-2.7119v-0.8506c0-1.8828-1.5332-3.415-3.418-3.415s-3.4189,1.5322-3.4189,3.415v0.8506h-9.6514v-0.8506
		c0-1.8828-1.5342-3.415-3.4189-3.415c-1.8828,0-3.4141,1.5322-3.4141,3.415v0.8506h-4.9268v-0.8506
		c0-1.8828-1.5332-3.415-3.418-3.415s-3.418,1.5322-3.418,3.415v0.8506h-3.9873V14.5586H14.4922z M45.3428,26.3613
		c0-0.7803,0.6367-1.415,1.4189-1.415s1.418,0.6348,1.418,1.415v3.7012c0,0.7822-0.6357,1.418-1.418,1.418
		s-1.4189-0.6357-1.4189-1.418V26.3613z M28.8584,26.3613c0-0.7803,0.6348-1.415,1.4141-1.415c0.7822,0,1.4189,0.6348,1.4189,1.415
		v3.7012c0,0.7822-0.6367,1.418-1.4189,1.418c-0.7793,0-1.4141-0.6357-1.4141-1.418V26.3613z M17.0957,26.3613
		c0-0.7803,0.6357-1.415,1.418-1.415s1.418,0.6348,1.418,1.415v3.7012c0,0.7822-0.6357,1.418-1.418,1.418s-1.418-0.6357-1.418-1.418
		V26.3613z M4.0146,6.5605c0-0.3975,0.1924-0.6377,0.2539-0.6602l4.5742-0.002C8.916,5.9229,9.1084,6.1631,9.1084,6.5605v44.999
		H4.0146V6.5605z M11.123,57.9463c0,0.083-0.0703,0.1533-0.1533,0.1533H2.1572C2.0732,58.0996,2,58.0283,2,57.9463v-4.2334
		c0-0.082,0.0732-0.1533,0.1572-0.1533h0.8574h7.0938h0.8613c0.083,0,0.1533,0.0703,0.1533,0.1533V57.9463z M19.9316,43.9863
		c0,0.7822-0.6357,1.418-1.418,1.418s-1.418-0.6357-1.418-1.418v-3.7012c0-0.7822,0.6357-1.418,1.418-1.418
		s1.418,0.6357,1.418,1.418V43.9863z M38.9854,43.9863c0,0.7822-0.6357,1.418-1.418,1.418s-1.4189-0.6357-1.4189-1.418v-3.7012
		c0-0.7822,0.6367-1.418,1.4189-1.418s1.418,0.6357,1.418,1.418V43.9863z M48.5088,43.9863c0,0.7822-0.6367,1.418-1.4189,1.418
		c-0.7793,0-1.4141-0.6357-1.4141-1.418v-3.7012c0-0.7822,0.6348-1.418,1.4141-1.418c0.7822,0,1.4189,0.6357,1.4189,1.418V43.9863z
		 M50.5088,41.1357v-0.8506c0-1.8848-1.5342-3.418-3.4189-3.418c-1.8828,0-3.4141,1.5332-3.4141,3.418v0.8506h-2.6904v-0.8506
		c0-1.8848-1.5332-3.418-3.418-3.418s-3.4189,1.5332-3.4189,3.418v0.8506H21.9316v-0.8506c0-1.8848-1.5332-3.418-3.418-3.418
		s-3.418,1.5332-3.418,3.418v0.8506h-3.9873V29.2119h3.9873v0.8506c0,1.8848,1.5332,3.418,3.418,3.418s3.418-1.5332,3.418-3.418
		v-0.8506h4.9268v0.8506c0,1.8848,1.5313,3.418,3.4141,3.418c1.8848,0,3.4189-1.5332,3.4189-3.418v-0.8506h9.6514v0.8506
		c0,1.8848,1.5342,3.418,3.4189,3.418s3.418-1.5332,3.418-3.418v-0.8506h2.7119v11.9238H50.5088z M62,57.9463
		c0,0.083-0.0703,0.1533-0.1533,0.1533h-8.8164c-0.082,0-0.1533-0.0713-0.1533-0.1533v-4.2334c0-0.082,0.0713-0.1533,0.1533-0.1533
		h0.8613h7.0938h0.8613c0.083,0,0.1533,0.0703,0.1533,0.1533V57.9463z"/>
</g>
<g id="microscope">
</g>
<g id="science_symbol">
</g>
<g id="calculator">
</g>
<g id="chemistry">
</g>
<g id="brain">
</g>
<g id="idea_book">
</g>
<g id="reward">
</g>
<g id="exam">
</g>
<g id="stationary">
</g>
<g id="computer">
</g>
<g id="backpack">
</g>
<g id="task">
</g>
<g id="globe">
</g>
<g id="certificate">
</g>
<g id="alarm">
</g>
<g id="books">
</g>
<g id="search_book">
</g>
<g id="stack_of_book">
</g>
</svg>
