<?xml version="1.0" encoding="iso-8859-1"?>
<!-- Generator: Adobe Illustrator 21.0.2, SVG Export Plug-In . SVG Version: 6.00 Build 0)  -->
<svg version="1.1" xmlns="http://www.w3.org/2000/svg" xmlns:xlink="http://www.w3.org/1999/xlink" x="0px" y="0px"
	 viewBox="0 0 64 64" style="enable-background:new 0 0 64 64;" xml:space="preserve">
<g id="bell">
	<g>
		<path d="M53.9676,47.9941h-6.0777c2.9756-1.2764,5.7-3.1412,8.0289-5.5332c9.6035-9.8584,9.416-25.7148-0.4189-35.3467
			C50.8065,2.5195,44.6337,0,38.0858,0c-0.1016,0-0.2031,0.001-0.3057,0.002c-6.6592,0.0791-12.8887,2.7549-17.541,7.5332
			c-9.6016,9.8613-9.4121,25.7197,0.4229,35.3496c2.2413,2.1952,4.8234,3.9103,7.6202,5.1094h-5.5226
			c-1.582,0-2.8691,1.291-2.8691,2.8789v3.6959c-6.9146-2.7355-12.3655-8.627-15.0732-16.3677
			c-3.1266-8.9396-2.1785-18.7324,2.4958-26.4026c0.4481,0.1971,0.9195,0.3539,1.4299,0.4153
			C8.9481,12.2383,9.1512,12.25,9.3524,12.25c2.5449,0,4.7559-1.9121,5.0703-4.5068c0.335-2.8027-1.667-5.3555-4.4619-5.6904
			c-1.3506-0.166-2.6904,0.209-3.7646,1.0557c-1.0703,0.8438-1.751,2.0557-1.916,3.4141C4.0919,8.098,4.6592,9.5786,5.6737,10.6467
			c-5.041,8.1946-6.0828,18.6694-2.7441,28.2147C5.9255,47.426,12.0856,53.88,19.8905,56.6971v4.424
			c0,1.5879,1.2871,2.8789,2.8691,2.8789h31.208c1.585,0,2.874-1.291,2.874-2.8789V50.873
			C56.8417,49.2852,55.5526,47.9941,53.9676,47.9941z M6.2665,6.7607c0.0996-0.8271,0.5146-1.5664,1.168-2.0811
			c0.5508-0.4346,1.2168-0.6641,1.9062-0.6641c0.126,0,0.252,0.0078,0.3789,0.0225c0.001,0.001,0.002,0.001,0.002,0.001
			c1.7012,0.2031,2.9189,1.7588,2.7148,3.4658c-0.2061,1.7051-1.7568,2.9355-3.4551,2.7227
			C7.2801,10.0234,6.0624,8.4678,6.2665,6.7607z M22.0614,41.4551c-9.0488-8.8604-9.2236-23.4512-0.3887-32.5254
			C25.951,4.5352,31.6805,2.0752,37.8046,2.002C37.8983,2.001,37.9911,2,38.0858,2c6.0205,0,11.6992,2.3174,16.0146,6.5439
			c9.0488,8.8623,9.2217,23.4512,0.3857,32.5215c-4.2765,4.3926-10.0018,6.8522-16.1206,6.9287h-0.3563
			C32.0126,47.9785,26.3612,45.6663,22.0614,41.4551z M22.7596,49.9941h15.1878c0.0407,0.0002,0.081,0.0029,0.1218,0.0029
			c0.1006,0,0.2031-0.001,0.3037-0.002c0.009-0.0001,0.0179-0.0009,0.0269-0.001h15.5678c0.4824,0,0.874,0.3945,0.874,0.8789v4.124
			H21.8905v-4.124C21.8905,50.3887,22.2801,49.9941,22.7596,49.9941z M53.9676,62h-31.208c-0.4707,0-0.8691-0.4023-0.8691-0.8789
			v-4.124h32.9512v4.124C54.8417,61.6055,54.4501,62,53.9676,62z"/>
		<path d="M46.0839,25.9648c0.5283-4.4258-2.6299-8.457-7.042-8.9883c-2.1377-0.2539-4.2471,0.334-5.9404,1.668
			c-1.6924,1.333-2.7666,3.2471-3.0254,5.3896c-0.5283,4.4209,2.6299,8.4531,7.041,8.9883
			c0.3242,0.0391,0.6465,0.0576,0.9658,0.0576C42.0995,33.0801,45.5887,30.0615,46.0839,25.9648z M37.3563,31.0361
			c-3.3164-0.4023-5.6914-3.4365-5.2939-6.7627c0.1943-1.6133,1.0029-3.0547,2.2764-4.0576
			c1.0771-0.8486,2.3779-1.2979,3.7256-1.2979c0.2451,0,0.4912,0.0146,0.7383,0.0449c0,0,0,0,0.001,0
			c3.3174,0.3984,5.6924,3.4336,5.2939,6.7627C43.6962,29.0527,40.6766,31.4346,37.3563,31.0361z"/>
		<path d="M33.3368,8.4121c-0.0518-0.5488-0.5361-0.9658-1.0898-0.9004c-3.2422,0.3086-6.7813,2.7139-9.2354,6.2764
			c-3.1436,4.5615-4.1016,10.2393-2.6299,15.5771c0.1221,0.4434,0.5244,0.7344,0.9629,0.7344c0.0889,0,0.1777-0.0117,0.2666-0.0361
			c0.5322-0.1465,0.8447-0.6973,0.6982-1.2295c-1.3145-4.7666-0.458-9.8369,2.3486-13.9111
			c2.1289-3.0889,5.1094-5.166,7.7783-5.4209C32.9862,9.4502,33.3895,8.9619,33.3368,8.4121z"/>
	</g>
</g>
<g id="diploma">
</g>
<g id="school">
</g>
<g id="painting">
</g>
<g id="graduation_hat">
</g>
<g id="school_bus">
</g>
<g id="abacus">
</g>
<g id="microscope">
</g>
<g id="science_symbol">
</g>
<g id="calculator">
</g>
<g id="chemistry">
</g>
<g id="brain">
</g>
<g id="idea_book">
</g>
<g id="reward">
</g>
<g id="exam">
</g>
<g id="stationary">
</g>
<g id="computer">
</g>
<g id="backpack">
</g>
<g id="task">
</g>
<g id="globe">
</g>
<g id="certificate">
</g>
<g id="alarm">
</g>
<g id="books">
</g>
<g id="search_book">
</g>
<g id="stack_of_book">
</g>
</svg>
