<?xml version="1.0" encoding="iso-8859-1"?>
<!-- Generator: Adobe Illustrator 21.0.2, SVG Export Plug-In . SVG Version: 6.00 Build 0)  -->
<svg version="1.1" xmlns="http://www.w3.org/2000/svg" xmlns:xlink="http://www.w3.org/1999/xlink" x="0px" y="0px"
	 viewBox="0 0 64 64" style="enable-background:new 0 0 64 64;" xml:space="preserve">
<g id="bell">
</g>
<g id="diploma">
</g>
<g id="school">
</g>
<g id="painting">
</g>
<g id="graduation_hat">
</g>
<g id="school_bus">
</g>
<g id="abacus">
</g>
<g id="microscope">
</g>
<g id="science_symbol">
</g>
<g id="calculator">
</g>
<g id="chemistry">
</g>
<g id="brain">
</g>
<g id="idea_book">
</g>
<g id="reward">
</g>
<g id="exam">
</g>
<g id="stationary">
</g>
<g id="computer">
	<g>
		<path d="M34.043,56.9561H13.2832c-0.5527,0-1,0.4478-1,1s0.4473,1,1,1H34.043c0.5527,0,1-0.4478,1-1
			S34.5957,56.9561,34.043,56.9561z"/>
		<path d="M7.6396,51.6875c-0.5527,0-1,0.4478-1,1s0.4473,1,1,1h0.6641c0.5527,0,1-0.4478,1-1s-0.4473-1-1-1H7.6396z"/>
		<path d="M12.7725,53.6875h0.6641c0.5527,0,1-0.4478,1-1s-0.4473-1-1-1h-0.6641c-0.5527,0-1,0.4478-1,1
			S12.2197,53.6875,12.7725,53.6875z"/>
		<path d="M17.9053,53.6875h0.6641c0.5527,0,1-0.4478,1-1s-0.4473-1-1-1h-0.6641c-0.5527,0-1,0.4478-1,1
			S17.3525,53.6875,17.9053,53.6875z"/>
		<path d="M23.7705,53.6875h0.6641c0.5527,0,1-0.4478,1-1s-0.4473-1-1-1h-0.6641c-0.5527,0-1,0.4478-1,1
			S23.2178,53.6875,23.7705,53.6875z"/>
		<path d="M29.6387,53.6875h0.665c0.5527,0,1-0.4478,1-1s-0.4473-1-1-1h-0.665c-0.5527,0-1,0.4478-1,1
			S29.0859,53.6875,29.6387,53.6875z"/>
		<path d="M34.7686,53.6875h0.668c0.5527,0,1-0.4478,1-1s-0.4473-1-1-1h-0.668c-0.5527,0-1,0.4478-1,1
			S34.2158,53.6875,34.7686,53.6875z"/>
		<path d="M39.9014,53.6875h0.6641c0.5527,0,1-0.4478,1-1s-0.4473-1-1-1h-0.6641c-0.5527,0-1,0.4478-1,1
			S39.3486,53.6875,39.9014,53.6875z"/>
		<path d="M8.3037,56.8203H7.6396c-0.5527,0-1,0.4478-1,1s0.4473,1,1,1h0.6641c0.5527,0,1-0.4478,1-1S8.8564,56.8203,8.3037,56.8203
			z"/>
		<path d="M39.1689,58.8203h0.6641c0.5527,0,1-0.4478,1-1s-0.4473-1-1-1h-0.6641c-0.5527,0-1,0.4478-1,1
			S38.6162,58.8203,39.1689,58.8203z"/>
		<path d="M57.1211,51.6338c-0.5527,0-1,0.4478-1,1v2.3936c0,0.5522,0.4473,1,1,1s1-0.4478,1-1v-2.3936
			C58.1211,52.0815,57.6738,51.6338,57.1211,51.6338z"/>
		<path d="M58.2969,47.5502v-8.0433c0-0.2656-0.1055-0.5205-0.2939-0.7085c-0.1875-0.1865-0.4414-0.2915-0.7061-0.2915
			c-0.001,0-0.002,0-0.0029,0l-16.4807,0.0549c-0.5969-1.1292-1.7697-1.9089-3.1335-1.9089h-1.5791v-3.333h12.8516
			c2.8086,0,5.0938-2.2837,5.0938-5.0903V5.0938C54.0459,2.2852,51.7607,0,48.9521,0H10.5859C7.7773,0,5.4932,2.2852,5.4932,5.0938
			v23.1357c0,2.8066,2.2842,5.0903,5.0928,5.0903h12.8525v3.333h-1.5791c-1.5927,0-2.928,1.0585-3.3802,2.5039H8.8213
			c-0.5527,0-1,0.4478-1,1v6.5835H3.4961c-1.6504,0-2.9932,1.3428-2.9932,2.9932v11.2734C0.5029,62.6572,1.8457,64,3.4961,64
			h40.1592c1.6504,0,2.9932-1.3428,2.9932-2.9932V49.7334c0-1.6504-1.3428-2.9932-2.9932-2.9932H9.8213v-5.5835h8.6245
			c0.4174,1.5007,1.7816,2.6113,3.4136,2.6113h15.8203c1.842,0,3.3435-1.4119,3.5222-3.2076l15.095-0.0502V47.55
			c-2.9468,0.4802-5.2051,3.0345-5.2051,6.1125v4.1367c0,3.4189,2.7832,6.2007,6.2051,6.2007c3.4189,0,6.2002-2.7817,6.2002-6.2007
			v-4.1367C63.4971,50.5848,61.2408,48.0307,58.2969,47.5502z M44.6484,49.7334v11.2734c0,0.5386-0.4551,0.9932-0.9932,0.9932
			H3.4961c-0.5479,0-0.9932-0.4453-0.9932-0.9932V49.7334c0-0.5479,0.4453-0.9932,0.9932-0.9932h40.1592
			C44.1934,48.7402,44.6484,49.1948,44.6484,49.7334z M10.5859,2h38.3662c1.7061,0,3.0938,1.3877,3.0938,3.0938v20.2715H7.4932
			V5.0938C7.4932,3.3877,8.8809,2,10.5859,2z M7.4932,28.2295v-0.8643h44.5527v0.8643c0,1.7041-1.3877,3.0903-3.0938,3.0903H35.1006
			H24.4385H10.5859C8.8809,31.3198,7.4932,29.9336,7.4932,28.2295z M25.4385,33.3198h8.6621v3.333h-8.6621V33.3198z
			 M37.6797,41.7681H21.8594c-0.8584,0-1.5576-0.6987-1.5576-1.5576s0.6992-1.5576,1.5576-1.5576h2.5791h10.6621h2.5791
			c0.8584,0,1.5576,0.6987,1.5576,1.5576S38.5381,41.7681,37.6797,41.7681z M61.4971,57.7993c0,2.3164-1.8838,4.2007-4.2002,4.2007
			c-2.3184,0-4.2051-1.8843-4.2051-4.2007v-4.1367c0-2.3164,1.8867-4.2007,4.2051-4.2007c2.3164,0,4.2002,1.8843,4.2002,4.2007
			V57.7993z"/>
	</g>
</g>
<g id="backpack">
</g>
<g id="task">
</g>
<g id="globe">
</g>
<g id="certificate">
</g>
<g id="alarm">
</g>
<g id="books">
</g>
<g id="search_book">
</g>
<g id="stack_of_book">
</g>
</svg>
