<?xml version="1.0" encoding="iso-8859-1"?>
<!-- Generator: Adobe Illustrator 21.0.2, SVG Export Plug-In . SVG Version: 6.00 Build 0)  -->
<svg version="1.1" xmlns="http://www.w3.org/2000/svg" xmlns:xlink="http://www.w3.org/1999/xlink" x="0px" y="0px"
	 viewBox="0 0 64 64" style="enable-background:new 0 0 64 64;" xml:space="preserve">
<g id="bell">
</g>
<g id="diploma">
</g>
<g id="school">
</g>
<g id="painting">
</g>
<g id="graduation_hat">
</g>
<g id="school_bus">
</g>
<g id="abacus">
</g>
<g id="microscope">
</g>
<g id="science_symbol">
</g>
<g id="calculator">
</g>
<g id="chemistry">
</g>
<g id="brain">
	<g>
		<path d="M64,30.5178c0-2.8887-1.6201-5.4976-4.1289-6.8042c0.4082-0.9487,0.6211-1.9761,0.6211-3.0229
			c0-4.2266-3.4404-7.6655-7.6689-7.6655c-0.1943,0-0.3896,0.0073-0.584,0.022c-0.4541-3.5586-3.3574-6.3623-6.9609-6.6641
			c-0.6221-3.3618-3.5713-5.8784-7.0791-5.8784c-2.6348,0-4.9434,1.4238-6.1973,3.543c-1.2549-2.1191-3.5654-3.543-6.2012-3.543
			c-3.5078,0-6.457,2.5166-7.0791,5.8784c-3.5977,0.3013-6.4971,3.0977-6.959,6.6641c-0.1934-0.0146-0.3877-0.022-0.582-0.022
			c-4.2285,0-7.6689,3.439-7.6689,7.6655c0,1.0488,0.2109,2.0757,0.6172,3.0229C1.6201,25.0198,0,27.6287,0,30.5178
			c0,2.7832,1.5137,5.3184,3.875,6.665c-1.0342,1.5313-1.5928,3.3389-1.5928,5.209c0,4.4854,3.1934,8.3018,7.5303,9.1357
			c1.2324,3.5498,4.5107,6.0283,8.2734,6.2383c0.8643,3.3203,3.9102,5.7295,7.4111,5.7295c2.6846,0,5.1309-1.4297,6.5039-3.6201
			c1.3711,2.1904,3.8154,3.6201,6.502,3.6201c3.5,0,6.5469-2.4092,7.4131-5.7295c3.7646-0.21,7.042-2.6875,8.2715-6.2383
			c4.3389-0.834,7.5332-4.6514,7.5332-9.1357c0-1.8721-0.5596-3.6797-1.5947-5.209C62.4873,35.8352,64,33.3,64,30.5178z
			 M58.7791,35.6157c-1.3243-1.0967-4.2783-2.3849-7.6844-0.5168c-0.4834,0.2656-0.6611,0.874-0.3955,1.3584
			c0.2666,0.4824,0.8701,0.6602,1.3584,0.3955c3.0811-1.6895,5.4512,0.1934,5.6797,0.5205c0.0063,0.0093,0.0175,0.0121,0.024,0.0211
			c0.0203,0.0275,0.0356,0.0579,0.059,0.0834c1.2256,1.3467,1.9004,3.0908,1.9004,4.9141c0,3.6727-2.7291,6.7717-6.3578,7.2399
			c-0.8334-0.0118-1.6787-0.2972-2.5729-0.6022c-0.2805-0.0961-0.5721-0.1946-0.872-0.2876
			c0.3148-1.8514,0.6005-5.6765-2.1251-6.8022c-0.5068-0.21-1.0947,0.0313-1.3057,0.542s0.0313,1.0947,0.542,1.3057
			c1.2105,0.5005,1.1885,2.891,0.927,4.5483c-1.3234-0.0978-2.7785,0.2159-4.3381,1.5376
			c-0.4209,0.3564-0.4736,0.9873-0.1162,1.4092c0.1973,0.2334,0.4795,0.3535,0.7637,0.3535c0.2275,0,0.457-0.0781,0.6455-0.2373
			c1.9043-1.6143,3.373-1.1123,5.2324-0.4766c0.6169,0.2105,1.2501,0.4157,1.9106,0.554c-1.1625,2.5816-3.7544,4.3044-6.6577,4.3044
			c-0.0859,0-0.1719-0.0039-0.2607-0.0068c-0.5146-0.0449-0.957,0.3506-1.0293,0.8594c-0.3916,2.7715-2.8008,4.8623-5.6035,4.8623
			c-2.6387,0-4.9619-1.8662-5.5244-4.4365c-0.0996-0.459-0.5059-0.7861-0.9756-0.7861c-0.001,0-0.001,0-0.001,0
			c-0.4697,0-0.876,0.3262-0.9766,0.7852c-0.5664,2.5713-2.8906,4.4375-5.5283,4.4375c-2.8037,0-5.2119-2.0898-5.6006-4.8613
			c-0.0713-0.5098-0.5439-0.8887-1.0293-0.8604c-2.9613,0.0983-5.7075-1.6417-6.9158-4.2986
			c0.6586-0.1383,1.2899-0.343,1.9051-0.5529c1.8594-0.6357,3.3281-1.1377,5.2324,0.4766c0.1885,0.1592,0.418,0.2373,0.6455,0.2373
			c0.2842,0,0.5664-0.1201,0.7637-0.3535c0.3574-0.4219,0.3047-1.0527-0.1162-1.4092c-1.5581-1.3203-3.0121-1.6345-4.335-1.5375
			c-0.263-1.6567-0.2855-4.0477,0.9268-4.5475c0.5098-0.2109,0.7529-0.7959,0.543-1.3066c-0.2119-0.5107-0.7979-0.75-1.3066-0.543
			c-2.7281,1.1263-2.4412,4.9501-2.1251,6.8025c-0.3009,0.0931-0.5934,0.192-0.8749,0.2883
			c-0.8942,0.3051-1.7394,0.5904-2.5729,0.6022c-3.6268-0.4682-6.3549-3.5672-6.3549-7.2399c0-1.8213,0.6738-3.5664,1.8984-4.915
			c0.0231-0.0254,0.0383-0.0556,0.0584-0.0829c0.0065-0.0087,0.0173-0.0116,0.0236-0.0206c0.2295-0.3271,2.5986-2.21,5.6797-0.5205
			c0.4873,0.2676,1.0938,0.0869,1.3584-0.3955c0.2656-0.4844,0.0879-1.0928-0.3955-1.3584
			C9.503,33.234,6.5472,34.521,5.2218,35.6161C3.2772,34.6808,2,32.7092,2,30.5178c0-2.4229,1.542-4.5796,3.8359-5.3662
			c0.2881-0.0986,0.5166-0.3237,0.6182-0.6113c0.1016-0.2871,0.0674-0.6055-0.0938-0.8643
			c-0.5557-0.8887-0.8486-1.9209-0.8486-2.9854c0-3.124,2.543-5.6655,5.6689-5.6655c0.4346,0,0.8701,0.0503,1.2939,0.1489
			c0.3008,0.0718,0.6182-0.002,0.8574-0.1973c0.2402-0.1948,0.377-0.4897,0.3701-0.7988l-0.0039-0.1528
			c0-3.126,2.543-5.6689,5.6689-5.6689l0.1992,0.0024c0.583,0.0166,1.0127-0.3975,1.042-0.9443
			c0.1514-2.7529,2.4316-4.9097,5.1924-4.9097c2.8682,0,5.2012,2.3335,5.2012,5.2017c0,0.5522,0.4473,1,1,1s1-0.4478,1-1
			c0-2.8682,2.3311-5.2017,5.1973-5.2017c2.7607,0,5.041,2.1567,5.1924,4.9097c0.0293,0.5474,0.502,0.9766,1.04,0.9443
			l0.2012-0.0024c3.126,0,5.6689,2.543,5.6689,5.6465l-0.0039,0.1753c-0.0068,0.3091,0.1299,0.604,0.3701,0.7988
			c0.2402,0.1953,0.5586,0.269,0.8574,0.1973c0.4238-0.0986,0.8604-0.1489,1.2979-0.1489c3.126,0,5.6689,2.5415,5.6689,5.6655
			c0,1.0605-0.2949,2.0928-0.8525,2.9854c-0.1611,0.2588-0.1953,0.5771-0.0938,0.8643c0.1016,0.2876,0.3301,0.5127,0.6182,0.6113
			C60.458,25.9382,62,28.095,62,30.5178C62,32.7088,60.7233,34.6802,58.7791,35.6157z"/>
		<path d="M52.7686,21.7478c-0.2061,0.0156-2.0469,0.2217-3.4141,2.5464c-0.4473,0.7583-1.2195,1.1124-1.8474,1.2834
			c-0.304-8.0637-6.9423-14.5349-15.0804-14.5349c-8.1694,0-14.8285,6.5237-15.0815,14.6332
			c-0.6265-0.1719-1.394-0.526-1.8375-1.2797c-1.3682-2.3301-3.209-2.5361-3.4141-2.5522c-0.5283-0.04-1.002,0.3555-1.0586,0.896
			c-0.0557,0.5391,0.3428,1.0264,0.8799,1.0957c0.042,0.0054,1.0313,0.1489,1.8682,1.5737c0.945,1.6061,2.5954,2.1487,3.631,2.3331
			c0.2775,2.6598,1.239,5.1776,2.8407,7.3544c1.4766,2.0049,3.4209,3.6133,5.6533,4.6826v2.4752
			c-1.2535,0.4213-2.165,1.5941-2.165,2.9877v0.4893c0,1.6043,1.2044,2.9193,2.7539,3.1235v1.2525
			c0,1.5439,1.2568,2.7998,2.8008,2.7998h6.2578c1.5459,0,2.8037-1.2559,2.8037-2.7998v-1.2524
			c1.548-0.2039,2.751-1.519,2.751-3.1235v-0.4893c0-1.3932-0.9097-2.5656-2.1611-2.9873v-2.4756
			c4.7878-2.2921,7.988-6.9012,8.5047-12.1386c1.0351-0.1857,2.6785-0.7293,3.6242-2.3316
			c0.8359-1.4214,1.8252-1.5645,1.8428-1.5674c0.5508-0.0425,0.9629-0.5229,0.9209-1.0737
			C53.7998,22.1179,53.3076,21.7019,52.7686,21.7478z M36.3594,50.1077c0,0.4414-0.3604,0.7998-0.8037,0.7998h-6.2578
			c-0.4336,0-0.8008-0.3662-0.8008-0.7998v-1.2109h7.8623V50.1077z M39.1104,45.7317c0,0.6426-0.5205,1.165-1.1611,1.165h-0.5898
			h-9.8623h-0.5889c-0.6426,0-1.165-0.5225-1.165-1.165v-0.4893c0-0.6426,0.5225-1.165,1.165-1.165h11.041
			c0.6406,0,1.1611,0.5225,1.1611,1.165V45.7317z M37.5576,38.2141c-0.3691,0.1572-0.6084,0.5195-0.6084,0.9199v2.9434h-3.5225
			v-7.8379h3.2256c0.5527,0,1-0.4473,1-1c0-0.5522-0.4473-1-1-1h-8.6016c-0.5527,0-1,0.4478-1,1c0,0.5527,0.4473,1,1,1h3.376v7.8379
			h-3.5186V39.134c0-0.4014-0.2393-0.7637-0.6084-0.9199c-2.1582-0.918-4.0371-2.4063-5.4336-4.3027
			c-1.665-2.2617-2.5449-4.9463-2.5449-7.7622c0-7.2271,5.8789-13.1064,13.1055-13.1064c7.2285,0,13.1094,5.8794,13.1094,13.1064
			C45.5361,31.4128,42.4043,36.1487,37.5576,38.2141z"/>
	</g>
</g>
<g id="idea_book">
</g>
<g id="reward">
</g>
<g id="exam">
</g>
<g id="stationary">
</g>
<g id="computer">
</g>
<g id="backpack">
</g>
<g id="task">
</g>
<g id="globe">
</g>
<g id="certificate">
</g>
<g id="alarm">
</g>
<g id="books">
</g>
<g id="search_book">
</g>
<g id="stack_of_book">
</g>
</svg>
