<?xml version="1.0" encoding="iso-8859-1"?>
<!-- Generator: Adobe Illustrator 21.0.2, SVG Export Plug-In . SVG Version: 6.00 Build 0)  -->
<svg version="1.1" xmlns="http://www.w3.org/2000/svg" xmlns:xlink="http://www.w3.org/1999/xlink" x="0px" y="0px"
	 viewBox="0 0 64 64" style="enable-background:new 0 0 64 64;" xml:space="preserve">
<g id="bell">
</g>
<g id="diploma">
</g>
<g id="school">
</g>
<g id="painting">
</g>
<g id="graduation_hat">
</g>
<g id="school_bus">
</g>
<g id="abacus">
</g>
<g id="microscope">
</g>
<g id="science_symbol">
</g>
<g id="calculator">
</g>
<g id="chemistry">
</g>
<g id="brain">
</g>
<g id="idea_book">
</g>
<g id="reward">
</g>
<g id="exam">
</g>
<g id="stationary">
</g>
<g id="computer">
</g>
<g id="backpack">
</g>
<g id="task">
</g>
<g id="globe">
</g>
<g id="certificate">
</g>
<g id="alarm">
	<g>
		<path d="M63.9274,11.054v-0.0005c-0.3525-3.2334-1.9433-6.1357-4.4785-8.1732c-2.5351-2.0381-5.7118-2.9633-8.9472-2.6133
			c-3.288,0.3574-6.2236,1.9873-8.2646,4.5893c-0.3408,0.4346-0.2646,1.063,0.1699,1.4038l7.9701,6.251l-1.3852,1.6022
			c-4.695-3.7244-10.3294-5.6841-16.0126-5.889V3.6649h2.2617c0.5527,0,1-0.4477,1-1s-0.4473-1-1-1h-6.5243c-0.5527,0-1,0.4477-1,1
			s0.4473,1,1,1h2.2627v4.5671c-5.6825,0.2064-11.3049,2.1657-15.9841,5.8671l-1.3747-1.5884L21.59,6.2601
			c0.4346-0.3403,0.5107-0.9687,0.1699-1.4033c-2.04-2.603-4.9746-4.2329-8.2636-4.5898c-3.2373-0.3511-6.4111,0.5742-8.9472,2.6133
			c-2.5351,2.0376-4.124,4.9399-4.4755,8.1728c-0.3486,3.1816,0.5478,6.3188,2.5234,8.8344
			c0.1973,0.251,0.4902,0.3823,0.7871,0.3823c0.2158,0,0.4336-0.0693,0.6162-0.2134l8.0453-6.3102l1.4241,1.6454
			c-0.3725,0.3416-0.7391,0.693-1.0965,1.0589c-5.1122,5.2358-7.8808,12.1498-7.7929,19.468
			c0.0718,6.0422,2.0877,11.7593,5.7341,16.4476l-2.9959,3.4707c-1.7637,1.9487-1.6113,4.9721,0.3408,6.7416
			c0.9092,0.8198,2.0498,1.2241,3.1894,1.2241c1.3076,0,2.6142-0.5327,3.5654-1.5835l2.9673-3.438
			c4.3334,2.74,9.3501,4.2103,14.5882,4.21c0.1113,0,0.2246-0.0005,0.3359-0.002c5.1362-0.061,10.0371-1.5292,14.2725-4.207
			l2.9812,3.455c0.9424,1.04,2.2422,1.5688,3.5449,1.5688c1.1416,0,2.2851-0.4058,3.1953-1.2285
			c0.9424-0.8525,1.498-2.0249,1.5625-3.3012c0.0635-1.2759-0.3691-2.4975-1.206-3.4223l-3.0152-3.4916
			c3.7875-4.8718,5.8101-10.8346,5.7349-17.0975c-0.0869-7.3183-3.0185-14.1644-8.2548-19.2771
			c-0.2006-0.1959-0.408-0.3806-0.6131-0.569l1.4452-1.6716l8.0448,6.3094c0.1836,0.144,0.4004,0.2134,0.6162,0.2134
			c0.2969,0,0.5898-0.1313,0.7871-0.3823C63.3757,17.3733,64.2731,14.2361,63.9274,11.054z M3.5902,17.8361
			c-1.2432-1.9448-1.7832-4.2412-1.5283-6.5654c0-0.0005,0-0.0005,0-0.0005c0.293-2.7026,1.6221-5.1284,3.7402-6.8315
			c1.8242-1.4663,4.0459-2.2451,6.3544-2.2451c0.3721,0,0.748,0.0205,1.123,0.0615c2.415,0.2622,4.6005,1.3447,6.2519,3.0781
			L3.5902,17.8361z M12.9163,60.8943c-1.0244,1.1338-2.7841,1.2226-3.915,0.2002c-1.1338-1.0273-1.2236-2.7841-0.1846-3.9335
			l2.8003-3.2437c0.3934,0.4357,0.7963,0.8647,1.2201,1.2784c0.9115,0.89,1.8763,1.705,2.8827,2.4502L12.9163,60.8943z
			 M55.157,57.178c0.4932,0.5459,0.7451,1.2549,0.707,1.997c-0.0371,0.7432-0.3594,1.4243-0.9062,1.9189
			c-1.1328,1.0254-2.8886,0.9341-3.9003-0.1816l-2.8199-3.2682c1.1788-0.873,2.2994-1.8413,3.3443-2.9115
			c0.2604-0.2667,0.5106-0.5405,0.7588-0.8157L55.157,57.178z M57.3758,35.2886c0.0811,6.7846-2.4843,13.1937-7.2255,18.0467
			c-4.7392,4.8549-11.0848,7.5732-17.868,7.6542c-0.1045,0.001-0.208,0.0015-0.3115,0.0015c-6.6679,0-12.9559-2.5591-17.7371-7.2265
			c-4.8544-4.7387-7.5722-11.0853-7.6532-17.8699c-0.0811-6.7841,2.4843-13.1932,7.2245-18.0467
			c0.5284-0.5413,1.079-1.0476,1.6424-1.5315c0.0311-0.0212,0.0667-0.0312,0.0958-0.0564c0.0285-0.0247,0.0413-0.0588,0.0663-0.0858
			c4.7061-3.9728,10.5362-5.9693,16.3729-5.9693c6.4013,0,12.8094,2.3989,17.742,7.2133
			C54.5779,22.1579,57.2947,28.5045,57.3758,35.2886z M60.408,17.8361L44.4658,5.3334c1.6523-1.7334,3.8378-2.8159,6.2529-3.0781
			c2.7041-0.2969,5.3593,0.481,7.4775,2.1836c2.1191,1.7031,3.4482,4.1289,3.7431,6.831
			C62.1921,13.5955,61.6501,15.8918,60.408,17.8361z"/>
		<path d="M47.3017,19.8967c-4.2254-4.1245-9.7052-6.1802-15.1904-6.2126c-0.045-0.0062-0.085-0.0266-0.1317-0.0266
			c-0.0327,0-0.0602,0.0156-0.0921,0.0186c-5.6733,0.0239-11.3343,2.2213-15.6011,6.5907
			c-4.1243,4.224-6.1807,9.7019-6.2144,15.1859c-0.0067,0.0468-0.0277,0.0886-0.0277,0.1372c0,0.0341,0.0161,0.0628,0.0193,0.0959
			c0.0249,5.6726,2.2231,11.3329,6.5929,15.6002c4.1259,4.0297,9.5556,6.2392,15.3153,6.2392c0.0017,0,0.0035,0,0.0052,0
			c0.0009,0,0.0016,0.0005,0.0016,0.0005c0.0019,0,0.0026-0.0005,0.0036-0.0005c0.0855,0,0.1718-0.0005,0.2581-0.0014
			c5.8593-0.0698,11.3387-2.4165,15.4315-6.6078c4.127-4.2282,6.1833-9.7119,6.2138-15.2001
			c0.0057-0.0431,0.0254-0.0812,0.0254-0.1259c0-0.0313-0.015-0.0576-0.0178-0.0881C53.8698,29.827,51.6722,24.1646,47.3017,19.8967
			z M46.2401,49.5189c-3.5395,3.625-8.2265,5.7092-13.2606,5.9586v-2.2247c0-0.5522-0.4473-1-1-1c-0.5527,0-1,0.4478-1,1v2.2215
			c-4.8652-0.2527-9.4143-2.1903-12.9266-5.6189c-3.7363-3.6491-5.7095-8.4201-5.951-13.2655h2.2148c0.5527,0,1-0.4477,1-1
			c0-0.5522-0.4473-1-1-1h-2.2159c0.2335-4.6876,2.0882-9.3118,5.6172-12.9256c3.6472-3.7358,8.4167-5.707,13.2616-5.9486v2.2113
			c0,0.5522,0.4473,1,1,1c0.5527,0,1-0.4477,1-1v-2.2129c4.6868,0.2333,9.3114,2.0866,12.9256,5.6137
			c3.7348,3.6477,5.7076,8.4173,5.9495,13.2621h-2.2132c-0.5527,0-1,0.4478-1,1c0,0.5522,0.4473,1,1,1h2.2145
			C51.623,41.2781,49.7687,45.9037,46.2401,49.5189z"/>
		<path d="M32.8845,33.1668l0.2952-7.8401c0.0215-0.5518-0.4092-1.0161-0.9609-1.0371c-0.5986-0.0254-1.0156,0.4102-1.0371,0.9619
			l-0.2951,7.8372c-0.6533,0.1487-1.2784,0.4545-1.7967,0.9488c-0.7461,0.707-1.1719,1.6621-1.1992,2.6899
			c-0.0231,0.8725,0.258,1.6993,0.772,2.3902l-3.0445,3.2558c-0.3769,0.4033-0.3555,1.0361,0.0478,1.4136
			c0.1924,0.1802,0.4375,0.2695,0.6826,0.2695c0.2666,0,0.5332-0.1064,0.7305-0.3169l3.1497-3.3683
			c0.4823,0.2051,0.9982,0.3102,1.5153,0.3102c0.9541,0,1.9101-0.3511,2.6552-1.0581c1.5381-1.4609,1.6025-3.9052,0.1396-5.4511
			C34.069,33.679,33.4938,33.3548,32.8845,33.1668z M33.0225,38.1733c-0.7422,0.7041-1.917,0.6748-2.622-0.064
			c-0.3428-0.3603-0.5234-0.832-0.5107-1.3281c0.0137-0.4946,0.2187-0.9536,0.5771-1.2934c0.001-0.0005,0.002-0.0015,0.002-0.0015
			c0.3584-0.3413,0.8183-0.5103,1.2773-0.5103c0.4902,0,0.9795,0.1924,1.3428,0.5732C33.792,36.293,33.7627,37.4702,33.0225,38.1733
			z"/>
	</g>
</g>
<g id="books">
</g>
<g id="search_book">
</g>
<g id="stack_of_book">
</g>
</svg>
