<?xml version="1.0" encoding="iso-8859-1"?>
<!-- Generator: Adobe Illustrator 21.0.2, SVG Export Plug-In . SVG Version: 6.00 Build 0)  -->
<svg version="1.1" xmlns="http://www.w3.org/2000/svg" xmlns:xlink="http://www.w3.org/1999/xlink" x="0px" y="0px"
	 viewBox="0 0 64 64" style="enable-background:new 0 0 64 64;" xml:space="preserve">
<g id="bell">
</g>
<g id="diploma">
</g>
<g id="school">
</g>
<g id="painting">
</g>
<g id="graduation_hat">
</g>
<g id="school_bus">
	<g>
		<path d="M37.7705,31.6592H26.8408c-0.5527,0-1,0.4473-1,1s0.4473,1,1,1h10.9297c0.5527,0,1-0.4473,1-1
			S38.3232,31.6592,37.7705,31.6592z"/>
		<path d="M37.7705,36.707H26.8408c-0.5527,0-1,0.4473-1,1s0.4473,1,1,1h10.9297c0.5527,0,1-0.4473,1-1
			S38.3232,36.707,37.7705,36.707z"/>
		<path d="M40.9658,9.293c0-0.5527-0.4473-1-1-1H23.9404c-0.5527,0-1,0.4473-1,1s0.4473,1,1,1h16.0254
			C40.5186,10.293,40.9658,9.8457,40.9658,9.293z"/>
		<path d="M61.2676,11.9336H58.877c-1.5068,0-2.7324,1.2246-2.7324,2.7295v5.4883c0,1.5049,1.2256,2.7295,2.7324,2.7295h0.2148
			v2.0762c0,0.7705-0.6289,1.3975-1.4014,1.3975h-4.2402V14.3887V9.1963C53.4502,5.7793,50.667,3,47.2461,3H16.7539
			c-3.4189,0-6.2002,2.7793-6.2002,6.1963v5.1924v11.9658H6.3096c-0.7715,0-1.3984-0.627-1.3984-1.3975v-2.0762H5.127
			c1.5068,0,2.7324-1.2246,2.7324-2.7295v-5.4883c0-1.5049-1.2256-2.7295-2.7324-2.7295H2.7324C1.2256,11.9336,0,13.1582,0,14.6631
			v5.4883c0,1.5049,1.2256,2.7295,2.7324,2.7295h0.1787v2.0762c0,1.873,1.5244,3.3975,3.3984,3.3975h4.2441v2.8724
			c-2.3726,0.6761-4.1162,2.8548-4.1162,5.4362v6.0127v5.7295v1.7373c0,1.1605,0.3527,2.2401,0.9551,3.1392v5.2085
			C7.3926,59.874,8.5195,61,9.9043,61h5.8662c1.3848,0,2.5117-1.126,2.5117-2.5098v-2.6865h27.4395v2.6865
			c0,1.3838,1.127,2.5098,2.5117,2.5098h5.8662c1.3848,0,2.5117-1.126,2.5117-2.5098v-5.209
			c0.6024-0.899,0.9551-1.9783,0.9551-3.1386v-1.7373v-5.7295v-6.0127c0-2.5811-1.744-4.7596-4.1162-5.436v-2.8726h4.2402
			c1.876,0,3.4014-1.5244,3.4014-3.3975v-2.0762h0.1758c1.5068,0,2.7324-1.2246,2.7324-2.7295v-5.4883
			C64,13.1582,62.7744,11.9336,61.2676,11.9336z M2.7324,20.8809C2.335,20.8809,2,20.5469,2,20.1514v-5.4883
			c0-0.3955,0.335-0.7295,0.7324-0.7295H5.127c0.3975,0,0.7324,0.334,0.7324,0.7295v5.4883c0,0.3955-0.335,0.7295-0.7324,0.7295
			H2.7324z M12.5537,9.1963C12.5537,6.8828,14.4375,5,16.7539,5h30.4922c2.3184,0,4.2041,1.8828,4.2041,4.1963v4.1924H32.002
			H12.5537V9.1963z M18.0293,41.6758v-6.4385c0-3.5479,2.8916-6.4346,6.4463-6.4346h15.0488c3.5566,0,6.4502,2.8867,6.4502,6.4346
			v6.4385H18.0293z M45.9746,43.6758v3.7295H18.0293v-3.7295H45.9746z M39.5244,26.8027H33.002V15.3887h18.4482v15.6172h-4.6277
			C45.3565,28.4971,42.6378,26.8027,39.5244,26.8027z M12.5537,15.3887H31.002v11.4141h-6.5264
			c-3.1121,0-5.8295,1.6943-7.2947,4.2031h-4.6271V15.3887z M8.4375,36.6631c0-2.0166,1.6455-3.6572,3.669-3.6572h4.2325
			c-0.1962,0.7121-0.3097,1.458-0.3097,2.2314v6.4385H8.4375V36.6631z M8.4375,43.6758h7.5918v3.7295H8.4375V43.6758z
			 M16.2822,58.4902c0,0.2813-0.2295,0.5098-0.5117,0.5098H9.9043c-0.2822,0-0.5117-0.2285-0.5117-0.5098v-3.3793
			c0.8065,0.4412,1.7312,0.6928,2.7139,0.6928h4.1758V58.4902z M54.6113,58.4902c0,0.2813-0.2295,0.5098-0.5117,0.5098h-5.8662
			c-0.2822,0-0.5117-0.2285-0.5117-0.5098v-2.6865h4.1748c0.983,0,1.908-0.2519,2.7148-0.6933V58.4902z M55.5664,50.1426
			c0,2.0186-1.6465,3.6611-3.6699,3.6611h-39.79c-2.0234,0-3.669-1.6426-3.669-3.6611v-0.7373h8.5918h29.9453h8.5918V50.1426z
			 M55.5664,47.4053h-7.5918v-3.7295h7.5918V47.4053z M55.5664,36.6631v5.0127h-7.5918v-6.4385
			c0-0.7734-0.1136-1.5193-0.3099-2.2314h4.2318C53.9199,33.0059,55.5664,34.6465,55.5664,36.6631z M62,20.1514
			c0,0.4023-0.3281,0.7295-0.7324,0.7295H58.877c-0.4043,0-0.7324-0.3271-0.7324-0.7295v-5.4883
			c0-0.4023,0.3281-0.7295,0.7324-0.7295h2.3906c0.4043,0,0.7324,0.3271,0.7324,0.7295V20.1514z"/>
	</g>
</g>
<g id="abacus">
</g>
<g id="microscope">
</g>
<g id="science_symbol">
</g>
<g id="calculator">
</g>
<g id="chemistry">
</g>
<g id="brain">
</g>
<g id="idea_book">
</g>
<g id="reward">
</g>
<g id="exam">
</g>
<g id="stationary">
</g>
<g id="computer">
</g>
<g id="backpack">
</g>
<g id="task">
</g>
<g id="globe">
</g>
<g id="certificate">
</g>
<g id="alarm">
</g>
<g id="books">
</g>
<g id="search_book">
</g>
<g id="stack_of_book">
</g>
</svg>
