<?xml version="1.0" encoding="iso-8859-1"?>
<!-- Generator: Adobe Illustrator 21.0.2, SVG Export Plug-In . SVG Version: 6.00 Build 0)  -->
<svg version="1.1" xmlns="http://www.w3.org/2000/svg" xmlns:xlink="http://www.w3.org/1999/xlink" x="0px" y="0px"
	 viewBox="0 0 64 64" style="enable-background:new 0 0 64 64;" xml:space="preserve">
<g id="bell">
</g>
<g id="diploma">
</g>
<g id="school">
</g>
<g id="painting">
</g>
<g id="graduation_hat">
</g>
<g id="school_bus">
</g>
<g id="abacus">
</g>
<g id="microscope">
</g>
<g id="science_symbol">
</g>
<g id="calculator">
</g>
<g id="chemistry">
</g>
<g id="brain">
</g>
<g id="idea_book">
	<g>
		<path d="M58.0889,48.6284V1.0083c0-0.5523-0.4473-1.0001-1.0001-1.0001H13.6677c-0.0037,0-0.0067,0.0021-0.0104,0.0021
			c-1.6947-0.1113-3.7322,0.6855-5.2371,2.063C6.8062,3.5515,5.918,5.5624,5.9199,7.7355v46.4674
			c-0.002,0.0659-0.0098,0.1317-0.0098,0.1976c0,0.0638,0.008,0.1261,0.0098,0.1896v0.1434c0,0.0175,0.009,0.0319,0.0099,0.0491
			c0.0979,1.7232,0.8455,3.3196,2.1456,4.5265c1.5368,1.4259,3.7015,2.1799,6.2604,2.1799h0.0645v1.5109
			c0,0.335,0.168,0.6485,0.4478,0.8341C15.0145,63.9434,15.2069,64,15.4003,64c0.1323,0,0.2652-0.0264,0.3902-0.0791l4.999-2.1184
			l4.6044,2.1066c0.3096,0.1416,0.67,0.1152,0.9566-0.0674c0.2862-0.1846,0.4595-0.501,0.4595-0.8419V61.489h30.2787
			c0.5518,0,1.0001-0.4473,1.0001-0.9991l0.001-7.0954L58.0889,48.6284z M56.0887,2.0084v45.6199l-41.4209-0.0038V2.0084H56.0887z
			 M9.7709,3.5485c0.9392-0.8599,2.0111-1.3258,2.8968-1.4863v45.611c-2.0348,0.1907-3.6235,0.9596-4.7475,2.0404V7.7345
			C7.9182,5.6772,8.9256,4.3225,9.7709,3.5485z M14.3358,59.4888c-2.0451,0-3.7396-0.5694-4.8999-1.6457
			c-0.9599-0.8909-1.49-2.0782-1.5158-3.3489V54.201c0.101-2.2382,1.9014-4.5689,5.7314-4.5757
			c0.0057,0.0001,0.0104,0.0032,0.0162,0.0032h42.421l0.001,3.767v0.0596H25.81H15.4003c-0.5523,0-1.0001,0.4473-1.0001,1.0001
			v5.0337H14.3358z M24.8099,61.4421l-3.5887-1.6418c-0.2549-0.1172-0.5489-0.1211-0.8062-0.0117L16.4004,61.49v-6.0347h8.4095
			V61.4421z M26.8101,59.4888v-4.0336h29.2793l-0.0007,4.0336H26.8101z"/>
		<path d="M34.7478,10.9433c0.5528,0,1.0001-0.4478,1.0001-1.0001V7.2066c0-0.5523-0.4473-1.0001-1.0001-1.0001
			c-0.5528,0-1.0001,0.4478-1.0001,1.0001v2.7366C33.7477,10.4955,34.195,10.9433,34.7478,10.9433z"/>
		<path d="M25.1781,11.8862c0.1953,0.1953,0.4512,0.293,0.7071,0.293c0.2559,0,0.5118-0.0977,0.7071-0.293
			c0.3907-0.3907,0.3907-1.0235,0-1.4142l-1.9328-1.9328c-0.3907-0.3907-1.0235-0.3907-1.4142,0
			c-0.3907,0.3907-0.3907,1.0235,0,1.4142L25.1781,11.8862z"/>
		<path d="M43.607,12.1792c0.2559,0,0.5108-0.0972,0.7061-0.292l1.9367-1.9328c0.3916-0.3902,0.3916-1.0235,0.002-1.4147
			c-0.3907-0.3916-1.0235-0.3912-1.4142-0.0015l-1.9367,1.9328c-0.3916,0.3902-0.3916,1.0235-0.002,1.4147
			C43.0943,12.0816,43.3512,12.1792,43.607,12.1792z"/>
		<path d="M34.6873,13.5368c-6.2618,0-11.356,5.0962-11.356,11.3599c0,2.4402,0.7628,4.7661,2.2053,6.7267
			c1.0763,1.4625,2.4841,2.6433,4.0995,3.4451v2.8466c-0.5506,0.002-0.9967,0.4479-0.9967,0.9994v2.3508
			c0,1.6095,1.3077,2.9182,2.9148,2.9182h6.2691c1.6076,0,2.9153-1.3087,2.9153-2.9182v-2.3508
			c0-0.5517-0.4458-0.9978-0.9972-0.9995v-2.8466c3.8519-1.9094,6.3053-5.8316,6.3053-10.1719
			C46.0467,18.633,40.9505,13.5368,34.6873,13.5368z M38.7384,41.2655c0,0.5059-0.4102,0.9181-0.9151,0.9181h-6.2691
			c-0.5044,0-0.9146-0.4121-0.9146-0.9181v-1.3507h8.0989V41.2655z M38.3507,33.5079c-0.3692,0.1563-0.6094,0.5186-0.6094,0.92
			v3.4867h-2.0539v-6.8127h2.1037c0.5528,0,1.0001-0.4478,1.0001-1.0001s-0.4473-1.0001-1.0001-1.0001h-6.3155
			c-0.5523,0-1.0001,0.4478-1.0001,1.0001s0.4478,1.0001,1.0001,1.0001h2.2116v6.8127h-2.051v-3.4867
			c0-0.4014-0.2403-0.7637-0.6099-0.921c-1.5407-0.6529-2.8816-1.7145-3.8788-3.0691c-1.1881-1.6144-1.8161-3.5306-1.8161-5.541
			c0-5.1611,4.1972-9.3598,9.3559-9.3598c5.1606,0,9.3593,4.1986,9.3593,9.3598C44.0465,28.6573,41.811,32.0375,38.3507,33.5079z"/>
	</g>
</g>
<g id="reward">
</g>
<g id="exam">
</g>
<g id="stationary">
</g>
<g id="computer">
</g>
<g id="backpack">
</g>
<g id="task">
</g>
<g id="globe">
</g>
<g id="certificate">
</g>
<g id="alarm">
</g>
<g id="books">
</g>
<g id="search_book">
</g>
<g id="stack_of_book">
</g>
</svg>
