<?xml version="1.0" encoding="iso-8859-1"?>
<!-- Generator: Adobe Illustrator 21.0.2, SVG Export Plug-In . SVG Version: 6.00 Build 0)  -->
<svg version="1.1" xmlns="http://www.w3.org/2000/svg" xmlns:xlink="http://www.w3.org/1999/xlink" x="0px" y="0px"
	 viewBox="0 0 64 64" style="enable-background:new 0 0 64 64;" xml:space="preserve">
<g id="bell">
</g>
<g id="diploma">
</g>
<g id="school">
</g>
<g id="painting">
</g>
<g id="graduation_hat">
</g>
<g id="school_bus">
</g>
<g id="abacus">
</g>
<g id="microscope">
</g>
<g id="science_symbol">
</g>
<g id="calculator">
</g>
<g id="chemistry">
</g>
<g id="brain">
</g>
<g id="idea_book">
</g>
<g id="reward">
	<g>
		<path d="M59.7495,3.4197H4.2539C1.9082,3.4197,0,5.384,0,7.7991v40.4219c0,2.415,1.9082,4.3799,4.2539,4.3799h36.7534v6.9795
			c0,0.3701,0.2046,0.71,0.5317,0.8838c0.3267,0.1729,0.7217,0.1514,1.0298-0.0566l6.479-4.3945l5.4785,4.3506
			c0.1807,0.1436,0.4004,0.2168,0.6221,0.2168c0.1479,0,0.2964-0.0332,0.4351-0.0996c0.3452-0.167,0.5649-0.5166,0.5649-0.9004
			v-6.9795h3.6011c2.3438,0,4.2505-1.9648,4.2505-4.3799V7.7991C64,5.384,62.0933,3.4197,59.7495,3.4197z M42.5439,33.8245
			c0-0.001,0.0005-0.001,0.0005-0.001c1.5698-1.6099,3.6733-2.5112,5.9229-2.5381c0.0342-0.0005,0.0679-0.0005,0.1025-0.0005
			c2.2104,0,4.2954,0.8481,5.8804,2.395c1.6108,1.5723,2.5127,3.6768,2.5396,5.9268c0.0273,2.249-0.8237,4.374-2.3955,5.9824
			c-3.2256,3.3018-8.5224,3.3806-11.8495,0.1941c-0.0283-0.0314-0.0583-0.0577-0.0902-0.0853
			c-1.5893-1.567-2.4803-3.6566-2.5065-5.891C40.1211,37.5579,40.9722,35.4329,42.5439,33.8245z M54.1484,57.509l-4.4321-3.5195
			c-0.3423-0.2725-0.8218-0.2891-1.1836-0.0439l-5.5254,3.748v-9.1794c1.694,1.0693,3.6271,1.6072,5.561,1.6072
			c1.9446,0,3.8841-0.549,5.5801-1.6245V57.509z M62,48.2209c0,1.3125-1.0098,2.3799-2.2505,2.3799h-3.6011v-3.7527
			c1.8624-1.9743,2.8743-4.5443,2.8413-7.2659c-0.0337-2.7842-1.1499-5.3887-3.1426-7.3335
			c-1.9922-1.9438-4.6343-2.9961-7.4038-2.9634c-2.7842,0.0332-5.3877,1.1489-7.3306,3.1416
			c-1.9448,1.9912-2.998,4.6211-2.9648,7.4043c0.0311,2.6452,1.0499,5.1201,2.8594,7.0289v3.7406H4.2539
			C3.0112,50.6008,2,49.5334,2,48.2209V7.7991c0-1.312,1.0112-2.3794,2.2539-2.3794h55.4956C60.9902,5.4197,62,6.4871,62,7.7991
			V48.2209z"/>
		<path d="M56.5884,14.1824H8.1548c-0.5522,0-1,0.4478-1,1s0.4478,1,1,1h48.4336c0.5522,0,1-0.4478,1-1
			S57.1406,14.1824,56.5884,14.1824z"/>
		<path d="M56.5884,23.1877H8.1548c-0.5522,0-1,0.4478-1,1s0.4478,1,1,1h48.4336c0.5522,0,1-0.4478,1-1
			S57.1406,23.1877,56.5884,23.1877z"/>
		<path d="M31.0693,31.6824H8.1548c-0.5522,0-1,0.4478-1,1s0.4478,0.9995,1,0.9995h22.9146c0.5522,0,1-0.4473,1-0.9995
			S31.6216,31.6824,31.0693,31.6824z"/>
		<path d="M15.2773,40.6877H8.1548c-0.5522,0-1,0.4473-1,1s0.4478,1,1,1h7.1226c0.5522,0,1-0.4473,1-1
			S15.8296,40.6877,15.2773,40.6877z"/>
		<path d="M48.5654,44.5715c0.021,0,0.042,0,0.063,0c1.3003-0.0166,2.5151-0.5381,3.4199-1.4668
			c0.9092-0.9287,1.4019-2.1572,1.3862-3.458c-0.0151-1.2998-0.5366-2.5156-1.4663-3.4219
			c-0.9302-0.9082-2.1484-1.3701-3.458-1.3857c-1.2998,0.0156-2.5161,0.5371-3.4248,1.4678c0,0-0.0005,0-0.001,0
			c-1.8716,1.9209-1.8335,5.0078,0.0854,6.8828C46.0845,44.0823,47.2881,44.5715,48.5654,44.5715z M46.5171,37.7034
			c0.5352-0.5479,1.2515-0.8555,2.0166-0.8643c0.7847,0.0244,1.4893,0.2813,2.0381,0.8174c0.5474,0.5342,0.854,1.249,0.8633,2.0137
			c0.0088,0.7666-0.2808,1.4893-0.8179,2.0381c-0.5332,0.5469-1.2485,0.8535-2.0142,0.8633
			c-0.7832-0.0107-1.4888-0.2803-2.0356-0.8135C45.4365,40.6536,45.4141,38.8352,46.5171,37.7034z"/>
		<path d="M31.0693,40.6877h-9.8838c-0.5522,0-1,0.4473-1,1s0.4478,1,1,1h9.8838c0.5522,0,1-0.4473,1-1
			S31.6216,40.6877,31.0693,40.6877z"/>
	</g>
</g>
<g id="exam">
</g>
<g id="stationary">
</g>
<g id="computer">
</g>
<g id="backpack">
</g>
<g id="task">
</g>
<g id="globe">
</g>
<g id="certificate">
</g>
<g id="alarm">
</g>
<g id="books">
</g>
<g id="search_book">
</g>
<g id="stack_of_book">
</g>
</svg>
