<?xml version="1.0" encoding="iso-8859-1"?>
<!-- Generator: Adobe Illustrator 21.0.2, SVG Export Plug-In . SVG Version: 6.00 Build 0)  -->
<svg version="1.1" xmlns="http://www.w3.org/2000/svg" xmlns:xlink="http://www.w3.org/1999/xlink" x="0px" y="0px"
	 viewBox="0 0 64 64" style="enable-background:new 0 0 64 64;" xml:space="preserve">
<g id="bell">
</g>
<g id="diploma">
</g>
<g id="school">
</g>
<g id="painting">
	<g>
		<path d="M16.0212,36.5619c0.1548-1.285-0.2002-2.5524-1.0004-3.5699c-0.7997-1.0184-1.948-1.6639-3.2335-1.8181
			c-1.285-0.1533-2.5519,0.1992-3.5694,0.9979c-1.0184,0.7987-1.6639,1.947-1.8181,3.233c-0.3193,2.651,1.5784,5.0677,4.229,5.388
			c0.1987,0.0234,0.3974,0.0361,0.5951,0.0361c1.0775,0,2.1169-0.3574,2.9776-1.0331
			C15.2205,38.9971,15.8669,37.8478,16.0212,36.5619z M14.0361,36.3227c-0.0908,0.7558-0.4702,1.4305-1.0687,1.9001
			c-0.5976,0.4687-1.3441,0.6767-2.0984,0.5839c-1.5569-0.1875-2.671-1.6062-2.4841-3.1637
			c0.0908-0.7548,0.4697-1.4295,1.0672-1.8982c0.5058-0.3964,1.1166-0.6064,1.7498-0.6064c0.1147,0,0.2304,0.0068,0.3461,0.0215
			h0.0005c0.7553,0.0898,1.43,0.4697,1.9001,1.0672C13.9184,34.8248,14.1269,35.5688,14.0361,36.3227z"/>
		<path d="M18.9022,41.3454c-0.001-0.001-0.002-0.001-0.002-0.001c-2.6647-0.3212-5.0731,1.5818-5.3914,4.2358
			c-0.1548,1.284,0.2007,2.5514,0.9994,3.5689c0.7997,1.0184,1.947,1.6639,3.2305,1.8181c0.1972,0.0234,0.394,0.0351,0.5893,0.0351
			c1.0795,0,2.1213-0.3584,2.9835-1.035c1.0184-0.7987,1.6643-1.946,1.8186-3.231C23.4485,44.0883,21.5518,41.6696,18.9022,41.3454z
			 M21.1451,46.4981c-0.0908,0.7538-0.4702,1.4276-1.0677,1.8962c-0.599,0.4697-1.348,0.6796-2.0998,0.5868
			c-0.7533-0.0898-1.4271-0.4687-1.8962-1.0672c-0.4692-0.5976-0.6776-1.3416-0.5873-2.0954
			C15.6677,44.3744,16.9,43.31,18.3207,43.31c0.1118,0,0.2256,0.0068,0.3393,0.0205C20.217,43.521,21.3316,44.9417,21.1451,46.4981z
			"/>
		<path d="M30.6453,47.0996h0.0005c-2.6667-0.3193-5.0731,1.5789-5.3914,4.2309c-0.3188,2.654,1.5809,5.0726,4.2343,5.3919
			c0.1963,0.0234,0.392,0.0352,0.5864,0.0352c1.0795,0,2.1213-0.3593,2.9835-1.037c1.0174-0.7997,1.6629-1.948,1.8172-3.234
			c0.1548-1.284-0.2007-2.5514-0.9994-3.5689C33.0766,47.8993,31.9293,47.2539,30.6453,47.0996z M32.8906,52.2484
			c-0.0908,0.7558-0.4702,1.4305-1.0682,1.9001c-0.5961,0.4706-1.3392,0.6796-2.0949,0.5878
			c-1.5589-0.1875-2.675-1.6082-2.488-3.1676c0.1738-1.4422,1.4051-2.5036,2.8248-2.5036c0.1128,0,0.2275,0.0059,0.3422,0.0205
			h0.0005c0.7533,0.0898,1.4271,0.4687,1.8962,1.0672C32.7725,50.7505,32.981,51.4945,32.8906,52.2484z"/>
		<path d="M62.2297,8.4571l-7.0907,8.5659l-2.3953-1.9753L63.7509,2.5291c0.3647-0.415,0.3242-1.0467-0.0908-1.411
			c-0.415-0.3652-1.0467-0.3232-1.411,0.0908l-11.049,12.5656c0-0.0002,0-0.0008,0-0.0008
			c-0.7469-0.6132-1.8551-0.5058-2.4747,0.2392l-2.271,2.7527c-0.1986-0.0369-0.383-0.0474-0.5406-0.0372
			c-0.1778,0.0083-0.3508,0.0497-0.5236,0.0936c-1.5611-0.5976-3.9455-1.2985-6.9642-1.5153
			c-11.7138-0.8573-28.0091,3.4214-34.9872,12.0356C0.1697,31.377-0.7745,35.892,0.6316,40.7625
			c4.2822,14.8399,17.1526,22.3682,28.0326,22.3682c0.3232,0,0.6444-0.0068,0.9633-0.0195
			c6.8263-0.2841,11.708-3.6587,12.7396-8.8065c2.5737-12.835,5.8123-19.7308,7.5867-22.7907
			c0.1747-0.107,0.3536-0.2095,0.5226-0.3225c3.2595-2.1784,4.7566-5.0252,4.0445-7.5691l2.3677-2.87
			c0.2998-0.3603,0.4404-0.8173,0.3964-1.2869c-0.0429-0.4564-0.2578-0.8682-0.6051-1.1674l7.0906-8.5657
			c0.352-0.4257,0.2924-1.0555-0.1328-1.408C63.2124,7.9728,62.5822,8.0313,62.2297,8.4571z M40.4063,53.9122
			c-0.8544,4.2612-4.9149,6.9532-10.8619,7.2012C19.2415,61.5235,6.6767,54.4981,2.5532,40.2079
			c-1.2147-4.2055-0.394-8.1103,2.4391-11.6069c6.567-8.1054,22.0826-12.1108,33.2897-11.3003
			c1.9755,0.1426,3.6476,0.5088,4.9669,0.9047c-0.828,0.829-1.6708,1.9411-2.6103,3.1856
			c-0.8787,1.1643-1.8135,2.3916-2.7878,3.4344c-1.0636-1.4495-2.4456-2.4088-5.0203-2.7177
			c-3.4459-0.4169-7.9985,2.4753-8.5077,6.6779c-0.2422,2.0281,0.3183,4.0298,1.5789,5.635
			c1.2616,1.6072,3.0729,2.6266,5.099,2.8688c0.3056,0.0361,0.6098,0.0547,0.912,0.0547c2.7575,0,5.3112-1.5081,6.6595-3.9074
			c1.0685,0.2885,2.1732,0.4254,3.2835,0.4254c1.7229,0,3.4537-0.3337,5.0803-0.9112C45.0536,36.827,42.5017,43.463,40.4063,53.9122
			z M33.5834,30.5226c0.9338,0.9556,1.9814,1.6753,3.0935,2.2055c-1.1499,1.8024-3.265,2.8384-5.4379,2.5751
			c-1.4959-0.1787-2.8331-0.9305-3.7642-2.1169s-1.3455-2.6647-1.1664-4.1616c0.3593-2.9645,3.8135-5.2259,6.2839-4.931
			c2.1567,0.2588,3.0668,1.0233,3.7864,2.0943c-0.6824,0.5309-1.379,0.9325-2.0898,1.0879
			c-0.2519,0.0547-0.4843,0.0674-0.6899,0.0791c-0.3769,0.0225-1.078,0.0625-1.3441,0.7489
			C31.9606,28.8627,32.4356,29.3489,33.5834,30.5226z M49.3651,29.5296c-4.186,2.7975-10.4454,3.563-14.3278-0.3808
			c2.859-0.8046,5.1595-3.853,7.1973-6.5529c1.2874-1.7058,2.8898-3.8286,3.772-3.8696c0.0306-0.0046,0.0861-0.0049,0.1647,0.0276
			l5.5945,4.615l0.7898,0.6516C53.2357,26.0515,51.2921,28.2407,49.3651,29.5296z M53.2598,22.0088l-5.08-4.1914l1.9352-2.3456
			l0.5467,0.4509c0.0046,0.004,0.0066,0.0101,0.0113,0.0139l3.9634,3.2652c0.0018,0.0015,0.004,0.0018,0.0057,0.0032l0.5538,0.4567
			L53.2598,22.0088z"/>
	</g>
</g>
<g id="graduation_hat">
</g>
<g id="school_bus">
</g>
<g id="abacus">
</g>
<g id="microscope">
</g>
<g id="science_symbol">
</g>
<g id="calculator">
</g>
<g id="chemistry">
</g>
<g id="brain">
</g>
<g id="idea_book">
</g>
<g id="reward">
</g>
<g id="exam">
</g>
<g id="stationary">
</g>
<g id="computer">
</g>
<g id="backpack">
</g>
<g id="task">
</g>
<g id="globe">
</g>
<g id="certificate">
</g>
<g id="alarm">
</g>
<g id="books">
</g>
<g id="search_book">
</g>
<g id="stack_of_book">
</g>
</svg>
