<?xml version="1.0" encoding="iso-8859-1"?>
<!-- Generator: Adobe Illustrator 21.0.2, SVG Export Plug-In . SVG Version: 6.00 Build 0)  -->
<svg version="1.1" xmlns="http://www.w3.org/2000/svg" xmlns:xlink="http://www.w3.org/1999/xlink" x="0px" y="0px"
	 viewBox="0 0 64 64" style="enable-background:new 0 0 64 64;" xml:space="preserve">
<g id="bell">
</g>
<g id="diploma">
</g>
<g id="school">
</g>
<g id="painting">
</g>
<g id="graduation_hat">
</g>
<g id="school_bus">
</g>
<g id="abacus">
</g>
<g id="microscope">
	<g>
		<path d="M15.9448,54.1516c-0.6431,0.6553-0.9917,1.5205-0.9819,2.4374c0.0098,0.9189,0.3779,1.7773,1.0381,2.4199
			c0.6679,0.6475,1.5356,0.9707,2.4028,0.9707c0.8954-0.001,1.7905-0.3447,2.4648-1.0293c0.645-0.6581,0.9936-1.5263,0.9814-2.4453
			c-0.0117-0.916-0.3813-1.7724-1.04-2.4111C19.4506,52.7708,17.2695,52.7981,15.9448,54.1516z M19.4413,57.549
			c-0.5576,0.5674-1.4765,0.5781-2.0468,0.0254c-0.2744-0.2666-0.4277-0.624-0.4316-1.0068
			c-0.0044-0.3818,0.1411-0.7421,0.4092-1.0146c0.001-0.001,0.002-0.002,0.0029-0.0029c0.2808-0.2881,0.6548-0.4326,1.0298-0.4326
			c0.3643,0,0.7299,0.1367,1.0121,0.4111c0.2744,0.2666,0.4287,0.622,0.4336,1.0029C19.8554,56.9132,19.7094,57.2755,19.4413,57.549
			z"/>
		<path d="M55.2033,49.4124h-6.2913c1.0566-1.0647,1.9955-2.2045,2.8002-3.4154c1.6816-0.4054,3.2744-1.2581,4.5703-2.5776
			c1.7822-1.8184,2.747-4.2187,2.7167-6.7587c-0.0313-2.54-1.0537-4.9159-2.8798-6.6893c-0.4857-0.4717-1.0107-0.8788-1.5626-1.2266
			c-2.482-9.8953-10.9781-17.121-21.0618-18.0363l0.2303-0.7016c0.2305-0.704,0.1709-1.457-0.168-2.121
			c-0.3388-0.665-0.915-1.1572-1.6205-1.3847l-0.1343-0.0436l0.4551-1.3881c0.2876-0.873,0.2163-1.8076-0.2017-2.6337
			c-0.4204-0.8301-1.1382-1.4463-2.0239-1.7363l-1.6343-0.5264c-1.8183-0.5967-3.7826,0.3984-4.3812,2.2119l-0.4588,1.3958
			l-0.1393-0.0452c-0.707-0.2314-1.4619-0.1729-2.1274,0.165c-0.6636,0.3369-1.1558,0.9092-1.3848,1.6113l-4.0019,12.1968
			l-0.6547-0.2127c-0.9883-0.3174-2.0513,0.2217-2.3701,1.2031l-1.2144,3.7021c-0.1558,0.4775-0.1147,0.9873,0.1143,1.4355
			c0.229,0.4482,0.6177,0.7792,1.0947,0.9335l3.2407,1.0519l-0.4551,1.3875c-0.2876,0.873-0.2158,1.8086,0.2021,2.6337
			c0.4208,0.8311,1.1386,1.4463,2.0214,1.7344l1.6391,0.5332c0.356,0.1152,0.7173,0.1699,1.0732,0.1699
			c1.4653,0,2.831-0.9297,3.3056-2.3877l0.4582-1.395l3.2419,1.0522c0.1938,0.0645,0.393,0.0957,0.5912,0.0957
			c0.2905,0,0.5796-0.0684,0.8477-0.2031c0.4512-0.2285,0.7856-0.6172,0.9404-1.0918l1.2143-3.6982
			c0.1553-0.4766,0.1147-0.9863-0.1138-1.4345s-0.6171-0.7803-1.0932-0.9346l-0.2642-0.0858l0.9299-2.8334
			c7.4467,0.2227,11.593,5.0349,13.0945,9.7983c-0.3947,0.2928-0.777,0.6092-1.1317,0.9703
			c-1.7822,1.8174-2.747,4.2167-2.7167,6.7557c0.0266,2.1631,0.7786,4.2035,2.1276,5.858
			c-1.7974,2.9242-4.4869,5.2195-7.8387,6.6652H23.6434v-5.4706h4.6434c2.0107,0,3.6469-1.6299,3.6469-3.6328
			c0-2.0058-1.6362-3.6376-3.6469-3.6376H9.9313c-2.0107,0-3.6469,1.6318-3.6469,3.6376c0,2.0029,1.6362,3.6328,3.6469,3.6328
			h4.6434v5.4706H7.6041c-1.436,0-2.6039,1.164-2.6039,2.5956v9.4002C5.0002,62.8369,6.1682,64,7.6041,64h47.5991
			c1.4335,0,2.5995-1.1631,2.5995-2.5917v-9.4002C57.8028,50.5764,56.6368,49.4124,55.2033,49.4124z M25.4607,4.3967l0.4556-1.3857
			c0.2539-0.7705,1.0913-1.1846,1.8603-0.9375c0.0015,0.001,0.0024,0.001,0.0034,0.002l1.6348,0.5264
			c0.3735,0.1221,0.6777,0.3838,0.8564,0.7373c0.1763,0.3477,0.207,0.7402,0.0864,1.1064l-0.4572,1.3946l-1.5015-0.4875
			L25.4607,4.3967z M22.0003,29.2712c-0.2504,0.7675-1.0878,1.1923-1.8608,0.9374l-1.6371-0.5331
			c-0.3735-0.1211-0.6777-0.3828-0.8564-0.7354c-0.1763-0.3477-0.207-0.7402-0.0864-1.1064l0.4576-1.3941l2.6429,0.8578
			l1.7963,0.5841L22.0003,29.2712z M28.1169,27.615l-7.0818-2.2988l-3.3476-1.0888c-0.0034-0.0011-0.0069-0.0001-0.0103-0.0012
			l-4.0726-1.322l1.1387-3.4697l1.4831,0.4818c0.003,0.001,0.0051,0.0035,0.0081,0.0045l7.8834,2.5592l5.1379,1.6692L28.1169,27.615
			z M27.822,21.58l-2.1895-0.7108l-7.8264-2.5425L21.807,6.134c0.0634-0.1953,0.2016-0.3545,0.3881-0.4492
			c0.189-0.0967,0.4028-0.1143,0.6021-0.0479c0.001,0,0.002,0.001,0.0029,0.001l4.881,1.5848l2.5485,0.8292
			c0.0035,0.0012,0.007,0.0005,0.0106,0.0016l1.0807,0.3509c0.1973,0.0635,0.3589,0.2021,0.4546,0.3896
			c0.0952,0.1865,0.1128,0.3965,0.0493,0.5908L27.822,21.58z M31.3021,17.3895l1.552-4.7286
			C41.7557,13.28,49.3888,19.26,52.1712,27.6705c-2.1879-0.6434-4.5574-0.4879-6.655,0.4532
			C43.7332,22.9513,39.2064,17.8539,31.3021,17.3895z M41.8999,36.8648c-0.0234-2.0029,0.7372-3.8954,2.1445-5.3309
			c2.9111-2.9667,7.702-3.0224,10.6824-0.127c1.4404,1.3994,2.248,3.2744,2.2724,5.2782c0.0244,2.0048-0.7372,3.8984-2.1445,5.3339
			c-2.9101,2.9599-7.702,3.0185-10.6814,0.124C42.7318,40.7417,41.9243,38.8677,41.8999,36.8648z M43.4829,44.1957
			c1.6301,1.3005,3.5894,1.9808,5.569,2.0624c-0.8975,1.1305-1.9282,2.1861-3.0847,3.1543h-7.6422
			C40.3983,48.0092,42.143,46.2532,43.4829,44.1957z M9.9313,41.9418c-0.9082,0-1.647-0.7324-1.647-1.6328
			c0-0.9033,0.7388-1.6377,1.647-1.6377h18.3555c0.9082,0,1.647,0.7344,1.647,1.6377c0,0.9004-0.7388,1.6328-1.647,1.6328h-5.6434
			h-7.0687H9.9313z M21.6435,43.9418v5.4706h-5.0688v-5.4706H21.6435z M55.8029,61.4083c0,0.3261-0.2686,0.5917-0.5996,0.5917
			H7.6041c-0.3276,0-0.6039-0.2715-0.6039-0.5917v-9.4002c0-0.3232,0.2764-0.5957,0.6039-0.5957h7.9706h7.0687h32.5599
			c0.3252,0,0.5996,0.2725,0.5996,0.5957V61.4083z"/>
		<path d="M49.4505,40.7124c1.0273,0,2.0546-0.3955,2.8261-1.1836c0.7393-0.7539,1.1387-1.748,1.126-2.8017
			c-0.0127-1.0518-0.4365-2.0361-1.1924-2.7695c-1.5585-1.5165-4.0654-1.4892-5.5868,0.0645
			c-0.7393,0.752-1.1396,1.747-1.127,2.8007s0.4365,2.039,1.1934,2.7734C47.4583,40.3413,48.4544,40.7124,49.4505,40.7124z
			 M48.0491,35.4244c0.001,0,0.001-0.001,0.001-0.001c0.3828-0.3896,0.8906-0.5859,1.3994-0.5859
			c0.4932,0,0.9863,0.1846,1.3672,0.5547c0.371,0.3603,0.579,0.8437,0.5859,1.3593c0.0059,0.5176-0.1904,1.0068-0.5537,1.377
			c-0.7509,0.7675-1.9921,0.7831-2.7665,0.0322c-0.372-0.3604-0.58-0.8447-0.5859-1.3613
			C47.4896,36.2818,47.6868,35.7935,48.0491,35.4244z"/>
	</g>
</g>
<g id="science_symbol">
</g>
<g id="calculator">
</g>
<g id="chemistry">
</g>
<g id="brain">
</g>
<g id="idea_book">
</g>
<g id="reward">
</g>
<g id="exam">
</g>
<g id="stationary">
</g>
<g id="computer">
</g>
<g id="backpack">
</g>
<g id="task">
</g>
<g id="globe">
</g>
<g id="certificate">
</g>
<g id="alarm">
</g>
<g id="books">
</g>
<g id="search_book">
</g>
<g id="stack_of_book">
</g>
</svg>
