<?xml version="1.0" encoding="iso-8859-1"?>
<!-- Generator: Adobe Illustrator 21.0.2, SVG Export Plug-In . SVG Version: 6.00 Build 0)  -->
<svg version="1.1" xmlns="http://www.w3.org/2000/svg" xmlns:xlink="http://www.w3.org/1999/xlink" x="0px" y="0px"
	 viewBox="0 0 64 64" style="enable-background:new 0 0 64 64;" xml:space="preserve">
<g id="bell">
</g>
<g id="diploma">
</g>
<g id="school">
	<g>
		<path d="M60.094,57.1707V23.3019c1.7098-0.1942,3.0479-1.6329,3.0479-3.3937c0-1.8945-1.54-3.4365-3.4326-3.4365h-1.046
			L32.6067,0.1523c-0.3242-0.2031-0.7373-0.2031-1.0615,0L5.4891,16.4717H4.2913c-1.8931,0-3.4331,1.542-3.4331,3.4365
			c0,1.8127,1.4171,3.2864,3.1997,3.409v33.8553c-1.6927,0.2108-3.0117,1.6437-3.0117,3.3939C1.0461,62.46,2.5862,64,4.4792,64
			h55.2114c1.8936,0,3.4336-1.54,3.4336-3.4336C63.1243,58.8101,61.7957,57.3734,60.094,57.1707z M39.2766,57.1299v-9.6572
			c0-3.9668-3.2266-7.1934-7.1934-7.1934c-3.9644,0-7.1895,3.2266-7.1895,7.1934v9.6572H6.0579V23.3408H58.094v33.7891H39.2766z
			 M37.2766,57.1299H26.8938v-9.6572c0-2.8633,2.3281-5.1934,5.1895-5.1934c2.8633,0,5.1934,2.3301,5.1934,5.1934V57.1299z
			 M32.0759,2.1797l22.8182,14.292H9.2573L32.0759,2.1797z M2.8582,19.9082c0-0.792,0.6431-1.4365,1.4331-1.4365h55.418
			c0.79,0,1.4326,0.6445,1.4326,1.4365c0,0.79-0.6426,1.4326-1.4326,1.4326H4.2913C3.5012,21.3408,2.8582,20.6982,2.8582,19.9082z
			 M59.6907,62H4.4792c-0.79,0-1.4331-0.6436-1.4331-1.4336c0-0.792,0.6431-1.4365,1.4331-1.4365h21.4146h12.3828h21.4141
			c0.79,0,1.4336,0.6445,1.4336,1.4365C61.1243,61.3564,60.4807,62,59.6907,62z"/>
		<path d="M20.0359,35.9951h-0.7695v-4.4893c0-2.1494-1.75-3.8975-3.9009-3.8975c-2.1494,0-3.8979,1.748-3.8979,3.8975v4.4893
			H10.698c-0.5522,0-1,0.4473-1,1s0.4478,1,1,1h1.7695h5.7988h1.7695c0.5522,0,1-0.4473,1-1S20.5881,35.9951,20.0359,35.9951z
			 M13.4675,35.9951v-4.4893c0-1.0459,0.8516-1.8975,1.8979-1.8975c1.0483,0,1.9009,0.8516,1.9009,1.8975v4.4893H13.4675z"/>
		<path d="M20.0359,49.3223h-0.7695v-4.4932c0-2.1494-1.75-3.8975-3.9009-3.8975c-2.1494,0-3.8979,1.748-3.8979,3.8975v4.4932
			H10.698c-0.5522,0-1,0.4473-1,1s0.4478,1,1,1h1.7695h5.7988h1.7695c0.5522,0,1-0.4473,1-1S20.5881,49.3223,20.0359,49.3223z
			 M13.4675,49.3223v-4.4932c0-1.0459,0.8516-1.8975,1.8979-1.8975c1.0483,0,1.9009,0.8516,1.9009,1.8975v4.4932H13.4675z"/>
		<path d="M44.2415,37.9951h1.7695h5.7979h1.7695c0.5527,0,1-0.4473,1-1s-0.4473-1-1-1h-0.7695v-4.4893
			c0-2.1494-1.75-3.8975-3.9004-3.8975c-2.1494,0-3.8975,1.748-3.8975,3.8975v4.4893h-0.7695c-0.5527,0-1,0.4473-1,1
			S43.6887,37.9951,44.2415,37.9951z M47.011,31.5059c0-1.0459,0.8516-1.8975,1.8975-1.8975c1.0479,0,1.9004,0.8516,1.9004,1.8975
			v4.4893H47.011V31.5059z"/>
		<path d="M53.5784,49.3223h-0.7695v-4.4932c0-2.1494-1.75-3.8975-3.9004-3.8975c-2.1494,0-3.8975,1.748-3.8975,3.8975v4.4932
			h-0.7695c-0.5527,0-1,0.4473-1,1s0.4473,1,1,1h1.7695h5.7979h1.7695c0.5527,0,1-0.4473,1-1S54.1311,49.3223,53.5784,49.3223z
			 M47.011,49.3223v-4.4932c0-1.0459,0.8516-1.8975,1.8975-1.8975c1.0479,0,1.9004,0.8516,1.9004,1.8975v4.4932H47.011z"/>
		<path d="M37.2034,35.9951h-0.7695v-4.4893c0-2.1494-1.748-3.8975-3.8975-3.8975c-2.1489,0-3.8975,1.748-3.8975,3.8975v4.4893
			h-0.7695c-0.5522,0-1,0.4473-1,1s0.4478,1,1,1h1.7695h5.7949h1.7695c0.5527,0,1-0.4473,1-1S37.7561,35.9951,37.2034,35.9951z
			 M30.6389,35.9951v-4.4893c0-1.0459,0.8511-1.8975,1.8975-1.8975c1.0459,0,1.8975,0.8516,1.8975,1.8975v4.4893H30.6389z"/>
		<path d="M34.9944,8.2871c-0.6279-0.7988-1.5293-1.3047-2.5391-1.4258c-1.0083-0.127-2.0054,0.1533-2.8062,0.7813
			c-0.8018,0.6289-1.3096,1.5322-1.4302,2.543c-0.25,2.0859,1.2417,3.9854,3.3232,4.2354c0.1548,0.0186,0.3091,0.0273,0.4614,0.0273
			c1.895,0,3.5425-1.4209,3.7788-3.3545C35.9026,10.083,35.6233,9.0869,34.9944,8.2871z M33.7971,10.8545
			c-0.1211,0.9912-1.0254,1.7002-2.0151,1.5801c-0.4795-0.0576-0.9077-0.2979-1.2051-0.6768
			c-0.2979-0.3799-0.4297-0.8535-0.3721-1.335c0.0571-0.4795,0.2983-0.9082,0.6787-1.2061c0.3203-0.251,0.7065-0.3848,1.1064-0.3848
			c0.0737,0,0.1479,0.0049,0.2222,0.0137c0.001,0.001,0.002,0.001,0.0034,0.001c0.48,0.0566,0.9087,0.2979,1.2065,0.6768
			C33.7209,9.9033,33.8538,10.377,33.7971,10.8545z"/>
	</g>
</g>
<g id="painting">
</g>
<g id="graduation_hat">
</g>
<g id="school_bus">
</g>
<g id="abacus">
</g>
<g id="microscope">
</g>
<g id="science_symbol">
</g>
<g id="calculator">
</g>
<g id="chemistry">
</g>
<g id="brain">
</g>
<g id="idea_book">
</g>
<g id="reward">
</g>
<g id="exam">
</g>
<g id="stationary">
</g>
<g id="computer">
</g>
<g id="backpack">
</g>
<g id="task">
</g>
<g id="globe">
</g>
<g id="certificate">
</g>
<g id="alarm">
</g>
<g id="books">
</g>
<g id="search_book">
</g>
<g id="stack_of_book">
</g>
</svg>
