<?xml version="1.0" encoding="iso-8859-1"?>
<!-- Generator: Adobe Illustrator 21.0.2, SVG Export Plug-In . SVG Version: 6.00 Build 0)  -->
<svg version="1.1" xmlns="http://www.w3.org/2000/svg" xmlns:xlink="http://www.w3.org/1999/xlink" x="0px" y="0px"
	 viewBox="0 0 64 64" style="enable-background:new 0 0 64 64;" xml:space="preserve">
<g id="bell">
</g>
<g id="diploma">
</g>
<g id="school">
</g>
<g id="painting">
</g>
<g id="graduation_hat">
</g>
<g id="school_bus">
</g>
<g id="abacus">
</g>
<g id="microscope">
</g>
<g id="science_symbol">
</g>
<g id="calculator">
</g>
<g id="chemistry">
</g>
<g id="brain">
</g>
<g id="idea_book">
</g>
<g id="reward">
</g>
<g id="exam">
</g>
<g id="stationary">
</g>
<g id="computer">
</g>
<g id="backpack">
</g>
<g id="task">
</g>
<g id="globe">
	<path d="M60.1913,40.4547l-9.0114-7.0817c1.0494-1.784,1.8475-3.7144,2.3678-5.733c0.0057-0.0269,0.0181-0.0519,0.0216-0.0789
		c0.889-3.5034,0.9342-7.2709-0.043-11.0081c-1.496-5.7228-5.1305-10.5203-10.2342-13.5089
		C38.1873,0.0555,32.2258-0.7672,26.504,0.7298c-3.8771,1.0137-7.2416,3.0049-9.9095,5.6344L8.9242,0.3768
		C8.4906,0.0365,7.8607,0.1141,7.5209,0.5496C7.1811,0.9847,7.2582,1.613,7.6938,1.9529l2.4265,1.8941
		c-5.9556,7.1276-8.1157,16.6296-5.7573,25.649c2.5924,9.9131,10.1023,17.2435,19.2258,20.1029v4.9828h-6.2398
		c-2.5955,0-4.7072,2.1117-4.7072,4.7072c0,2.5975,2.1117,4.7111,4.7072,4.7111h27.0524c2.5955,0,4.7072-2.1136,4.7072-4.7111
		c0-2.5955-2.1117-4.7072-4.7072-4.7072H38.161v-4.3164c0.4024-0.0871,0.8049-0.1694,1.207-0.2746
		c6.4067-1.6737,12.0114-5.5283,15.8999-10.8622l3.6881,2.8984c0.1831,0.144,0.4009,0.2139,0.6171,0.2139
		c0.2959,0,0.5893-0.1309,0.7866-0.3823C60.701,41.4244,60.6258,40.796,60.1913,40.4547z M37.1977,41.6411
		c-5.7978,1.5166-11.6679,0.3157-16.2957-2.7844c3.2196-4.4365,6.746-3.9065,10.4665-3.3388
		c2.9808,0.4546,6.0631,0.9233,8.3036-1.8212c2.8387-3.4793,5.7608-3.5437,8.3388-3.6008c0.9059-0.02,1.8214-0.0507,2.6732-0.2435
		C48.3474,35.4718,43.5268,39.9863,37.1977,41.6411z M51.5917,17.0588c0.8846,3.3831,0.8472,6.7933,0.0499,9.9671
		c-0.6564,0.9487-1.7311,1.0276-3.6751,1.0707c-2.7103,0.0601-6.4224,0.1421-9.8441,4.3356
		c-1.4452,1.7704-3.3938,1.5741-6.4527,1.1083c-3.7795-0.5758-8.4311-1.2733-12.37,4.1256
		c-3.1597-2.6009-5.5717-6.1659-6.6839-10.4191c-0.2467-0.9435-0.3971-1.8879-0.5042-2.8301
		c3.6741-4.2828,9.4219-7.2509,14.2953-4.4116c6.9063,4.0251,11.0208,2.6903,12.568,0.0981
		c1.2367-2.0711,0.7021-4.7863-1.1655-5.9283c-0.7495-0.4604-1.1835-1.7387-1.456-2.5408
		c-0.4507-1.3149-0.3955-2.6663-0.3374-4.0974c0.0683-1.6849,0.1381-3.5312-0.755-5.2794c2.444,0.3886,4.8206,1.2243,7.0202,2.5125
		C46.9241,7.4886,50.2305,11.8531,51.5917,17.0588z M27.0099,2.6642c1.6981-0.4438,3.4187-0.6635,5.1286-0.6635
		c0.1642,0,0.3276,0.0123,0.4915,0.0163c1.5255,1.5692,1.4754,3.2887,1.3878,5.4384c-0.063,1.5526-0.1284,3.1575,0.455,4.86
		c0.3462,1.0195,0.9252,2.7259,2.2918,3.5647c0.9374,0.5737,1.1684,2.0682,0.4931,3.198c-1.0571,1.7709-4.1975,2.4901-9.8441-0.8002
		c-5.2612-3.067-11.2153-0.7051-15.4322,3.3571C12.2104,12.9003,18.1416,4.983,27.0099,2.6642z M47.1086,59.2889
		c0,1.495-1.2143,2.7112-2.7073,2.7112H17.3489c-1.4931,0-2.7073-1.2162-2.7073-2.7112c0-1.4931,1.2143-2.7073,2.7073-2.7073
		h27.0524C45.8944,56.5815,47.1086,57.7958,47.1086,59.2889z M36.1611,54.5817H25.5886v-4.4298
		c2.1195,0.4993,4.3059,0.7752,6.5294,0.7752c1.3384,0,2.6892-0.1054,4.0432-0.2995V54.5817z M38.8621,48.0562
		c-14.2359,3.718-28.8418-4.8317-32.5647-19.0661C4.0985,20.5781,6.1245,11.715,11.697,5.0777l3.5332,2.758
		c-3.7617,4.446-5.7311,10.3098-5.1732,16.343c0.0014,0.0228,0.0024,0.0441,0.0053,0.0667
		c0.1114,1.1662,0.3133,2.3383,0.6191,3.5075c1.3207,5.0522,4.2979,9.2352,8.1918,12.1345c0.0338,0.0284,0.0559,0.066,0.0942,0.0903
		c0.031,0.0196,0.0652,0.0279,0.0973,0.0437c3.7356,2.7209,8.288,4.2773,13.0424,4.2768c1.848,0,3.7268-0.2339,5.5963-0.7226
		c5.1942-1.3581,9.4754-4.4635,12.3814-8.5202l3.6118,2.8383C50.0779,42.8863,44.8454,46.4928,38.8621,48.0562z"/>
</g>
<g id="certificate">
</g>
<g id="alarm">
</g>
<g id="books">
</g>
<g id="search_book">
</g>
<g id="stack_of_book">
</g>
</svg>
