<?xml version="1.0" encoding="iso-8859-1"?>
<!-- Generator: Adobe Illustrator 21.0.2, SVG Export Plug-In . SVG Version: 6.00 Build 0)  -->
<svg version="1.1" xmlns="http://www.w3.org/2000/svg" xmlns:xlink="http://www.w3.org/1999/xlink" x="0px" y="0px"
	 viewBox="0 0 64 64" style="enable-background:new 0 0 64 64;" xml:space="preserve">
<g id="bell">
</g>
<g id="diploma">
</g>
<g id="school">
</g>
<g id="painting">
</g>
<g id="graduation_hat">
	<path d="M61.4123,18.4914l-24.3063-5.7177c-1.9306-0.4795-3.1767-0.7734-4.4238-0.7734c-1.2466,0-2.4931,0.2939-4.4121,0.7705
		L3.9579,18.4914c-1.6523,0.3838-2.6601,1.6045-2.5864,3.1201c-0.0737,1.5107,0.9331,2.7314,2.584,3.1201l0.1323,0.0311v13.9417
		c-0.626,0.179-1.203,0.5052-1.6689,0.9869c-0.7956,0.8201-1.1287,1.9135-1.0354,2.9755l-1.344,6.7617
		c-0.1196,0.5889,0.0347,1.1826,0.4331,1.6699c0.4551,0.5557,1.1875,0.9014,1.9116,0.9014h5.3364
		c0.7212,0,1.4516-0.3437,1.9062-0.8974c0.4004-0.4863,0.5561-1.0801,0.4394-1.6709l-1.261-6.3396
		c0.2461-1.2182-0.1004-2.5332-1.048-3.4649c-0.4721-0.4647-1.0484-0.775-1.6694-0.9409V25.2329l5.3588,1.2599v14.2786
		c0,1.8847,1.2099,4.5165,6.9745,6.3525c3.7387,1.1914,8.7514,1.8476,14.1146,1.8476c10.4969,0,21.0891-2.5361,21.0891-8.2001
		v-14.209l7.7885-1.8308c1.6499-0.3896,2.6567-1.6103,2.583-3.1201C64.0699,20.0968,63.0621,18.8761,61.4123,18.4914z
		 M7.7206,49.9998H2.3842c-0.1934,0-0.3652-0.1426-0.3838-0.1777l0.8859-4.4559c0.6468,0.4819,1.4173,0.7548,2.2332,0.7548
		c0.0161,0,0.0317,0,0.0479,0c0.7507-0.0095,1.4653-0.2389,2.0725-0.6556l0.8655,4.3304
		C8.0853,49.8562,7.9144,49.9998,7.7206,49.9998z M6.3851,43.5838c-0.3306,0.3398-0.772,0.5312-1.2427,0.5371
		c-0.4585-0.0029-0.9189-0.1748-1.2573-0.5068c-0.7017-0.6904-0.7148-1.8252-0.0303-2.5312l0.0015-0.001
		c0.3296-0.3408,0.77-0.5322,1.2412-0.5381c0.0073,0,0.0146,0,0.022,0c0.4634,0,0.9014,0.1807,1.2353,0.5088
		C7.0565,41.743,7.0697,42.8778,6.3851,43.5838z M32.5357,46.9715c-10.8827,0-19.0891-2.666-19.0891-6.2001v-1.9848
		c4.1153,3.0091,12.003,4.3256,19.3293,4.3256c0.6899,0,1.3745-0.0117,2.0503-0.0342c3.0489-0.1033,12.2063-0.7132,16.7986-4.168
		v1.8614C51.6248,44.3055,43.4183,46.9715,32.5357,46.9715z M51.6248,36.1307c-1.9903,2.732-8.5382,4.6664-16.866,4.9483
		c-9.9308,0.3399-18.5899-1.7076-21.3122-4.9877V26.963l14.8113,3.4823c1.9311,0.4795,3.1777,0.7734,4.4243,0.7734
		c1.2471,0,2.4931-0.2939,4.4116-0.7705l14.5311-3.4158V36.1307z M61.9967,21.6818c0.0386,0.543-0.332,0.9346-1.0425,1.1025
		L36.6235,28.504c-1.9551,0.4863-2.9809,0.7148-3.9414,0.7148c-0.9643,0-1.9419-0.2178-3.9541-0.7178L4.414,22.7843
		c-0.7114-0.167-1.0815-0.5586-1.043-1.1025c0.0034-0.0469,0.0034-0.0937,0-0.1406c-0.0386-0.5459,0.3311-0.9375,1.0425-1.1025
		l24.3268-5.7236c2-0.4971,2.9775-0.7148,3.9418-0.7148c0.9604,0,1.9863,0.2285,3.9536,0.7178l24.3205,5.7206
		c0.7095,0.166,1.0791,0.5576,1.0405,1.1025C61.9933,21.588,61.9933,21.6349,61.9967,21.6818z"/>
</g>
<g id="school_bus">
</g>
<g id="abacus">
</g>
<g id="microscope">
</g>
<g id="science_symbol">
</g>
<g id="calculator">
</g>
<g id="chemistry">
</g>
<g id="brain">
</g>
<g id="idea_book">
</g>
<g id="reward">
</g>
<g id="exam">
</g>
<g id="stationary">
</g>
<g id="computer">
</g>
<g id="backpack">
</g>
<g id="task">
</g>
<g id="globe">
</g>
<g id="certificate">
</g>
<g id="alarm">
</g>
<g id="books">
</g>
<g id="search_book">
</g>
<g id="stack_of_book">
</g>
</svg>
